<svg id="amor" xmlns="http://www.w3.org/2000/svg" width="113.66" height="100" viewBox="0 0 113.66 100">
  <g id="Grupo_292" data-name="Grupo 292">
    <path id="Trazado_194" data-name="Trazado 194" d="M113.66,34.8A28.178,28.178,0,0,0,65.53,14.9l-5.39,5.4-5.39-5.4A28.178,28.178,0,0,0,6.62,34.8c0,33.09,53.52,65.2,53.52,65.2S113.66,67.89,113.66,34.8Z" fill="#f497b0"/>
  </g>
  <g id="Grupo_296" data-name="Grupo 296">
    <g id="Grupo_293" data-name="Grupo 293">
      <path id="Trazado_195" data-name="Trazado 195" d="M55.67,97.68a2.084,2.084,0,0,1-1.1-.31C52.34,96.04,0,64.24,0,30.33A30.335,30.335,0,0,1,51.8,8.9l3.88,3.88L59.56,8.9a30.335,30.335,0,0,1,51.8,21.43c0,27.03-33.72,53-48.22,62.91a2.151,2.151,0,1,1-2.43-3.55c13.93-9.53,46.35-34.38,46.35-59.36A26.036,26.036,0,0,0,62.6,11.94l-5.4,5.4a2.205,2.205,0,0,1-3.04,0l-5.4-5.4A26.036,26.036,0,0,0,4.3,30.33c0,31.48,51.96,63.04,52.48,63.36a2.146,2.146,0,0,1-1.11,3.99Z"/>
    </g>
    <g id="Grupo_295" data-name="Grupo 295">
      <g id="Grupo_294" data-name="Grupo 294">
        <path id="Trazado_196" data-name="Trazado 196" d="M11.31,37.67a2.137,2.137,0,0,1-2.1-1.71,27.767,27.767,0,0,1-.61-5.63A21.657,21.657,0,0,1,25.32,9.18a2.153,2.153,0,1,1,.99,4.19A17.377,17.377,0,0,0,12.9,30.33a23.194,23.194,0,0,0,.51,4.74,2.161,2.161,0,0,1-1.66,2.55A2.283,2.283,0,0,1,11.31,37.67Z"/>
      </g>
    </g>
  </g>
  <g id="Grupo_302" data-name="Grupo 302">
    <g id="Grupo_297" data-name="Grupo 297">
      <path id="Trazado_197" data-name="Trazado 197" d="M71.68,58.75h0A8.413,8.413,0,0,1,69.6,56.3a8.612,8.612,0,0,1-1.05-2.86v.01a8.541,8.541,0,0,0-16.82,0l-.01-.01a8.612,8.612,0,0,1-1.05,2.86,8.294,8.294,0,0,1-2.09,2.45h.01a8.536,8.536,0,0,0,8.54,14.54l-.01.01a8.809,8.809,0,0,1,3.01-.51,8.289,8.289,0,0,1,3.16.57l-.01-.01a8.546,8.546,0,0,0,8.4-14.6Z" fill="#fff"/>
    </g>
    <g id="Grupo_298" data-name="Grupo 298">
      <path id="Trazado_198" data-name="Trazado 198" d="M47.36,47.52a4.9,4.9,0,1,1-4.89-4.89A4.891,4.891,0,0,1,47.36,47.52Z" fill="#fff"/>
    </g>
    <g id="Grupo_299" data-name="Grupo 299">
      <path id="Trazado_199" data-name="Trazado 199" d="M57.41,36.99a4.89,4.89,0,1,1-4.89-4.89A4.891,4.891,0,0,1,57.41,36.99Z" fill="#fff"/>
    </g>
    <g id="Grupo_300" data-name="Grupo 300">
      <path id="Trazado_200" data-name="Trazado 200" d="M72.92,47.52a4.89,4.89,0,1,0,4.89-4.89A4.891,4.891,0,0,0,72.92,47.52Z" fill="#fff"/>
    </g>
    <g id="Grupo_301" data-name="Grupo 301">
      <path id="Trazado_201" data-name="Trazado 201" d="M62.87,36.99a4.89,4.89,0,1,0,4.89-4.89A4.891,4.891,0,0,0,62.87,36.99Z" fill="#fff"/>
    </g>
  </g>
  <g id="Grupo_308" data-name="Grupo 308">
    <g id="Grupo_303" data-name="Grupo 303">
      <path id="Trazado_202" data-name="Trazado 202" d="M61.77,71.57a10.53,10.53,0,0,1-3.67-.66l-.18-.06a6.51,6.51,0,0,0-2.25-.37,6.23,6.23,0,0,0-2.37.41,1.4,1.4,0,0,1-.29.09A10.685,10.685,0,0,1,42.62,52.74c.05-.05.11-.1.17-.15a6.162,6.162,0,0,0,1.55-1.84,6.325,6.325,0,0,0,.78-2.13,1.015,1.015,0,0,1,.06-.25,10.69,10.69,0,0,1,20.96,0,2.267,2.267,0,0,1,.06.25,6.815,6.815,0,0,0,2.34,3.97c.06.05.12.1.18.16a10.647,10.647,0,0,1,3.74,8.11,2.15,2.15,0,0,1-4.3,0,6.356,6.356,0,0,0-2.33-4.92c-.03-.03-.07-.06-.1-.09a10.785,10.785,0,0,1-2.47-2.95A10.536,10.536,0,0,1,62,49.56a1.416,1.416,0,0,1-.04-.2,6.4,6.4,0,0,0-12.6,0c-.01.07-.03.13-.04.19a11.006,11.006,0,0,1-3.74,6.3c-.03.03-.06.05-.09.08a6.387,6.387,0,0,0,4.07,11.32,6.147,6.147,0,0,0,2.19-.4c.06-.02.13-.04.19-.06a10.583,10.583,0,0,1,3.71-.62,10.841,10.841,0,0,1,3.53.56,2.25,2.25,0,0,1,.24.08,6.4,6.4,0,0,0,6.81-1.4,2.15,2.15,0,0,1,3.02,3.06A10.464,10.464,0,0,1,61.77,71.57Z"/>
    </g>
    <g id="Grupo_304" data-name="Grupo 304">
      <path id="Trazado_203" data-name="Trazado 203" d="M38,50.09a7.04,7.04,0,1,1,7.04-7.04,2.15,2.15,0,0,1-4.3,0A2.74,2.74,0,1,0,38,45.79a2.15,2.15,0,1,1,0,4.3Z"/>
    </g>
    <g id="Grupo_305" data-name="Grupo 305">
      <path id="Trazado_204" data-name="Trazado 204" d="M48.06,39.55a7.04,7.04,0,1,1,7.04-7.04,2.15,2.15,0,0,1-4.3,0,2.74,2.74,0,1,0-2.74,2.74,2.15,2.15,0,0,1,0,4.3Z"/>
    </g>
    <g id="Grupo_306" data-name="Grupo 306">
      <path id="Trazado_205" data-name="Trazado 205" d="M63.29,39.55a7.04,7.04,0,1,1,7.05-7.04,2.15,2.15,0,0,1-4.3,0,2.745,2.745,0,1,0-2.75,2.74,2.15,2.15,0,1,1,0,4.3Z"/>
    </g>
    <g id="Grupo_307" data-name="Grupo 307">
      <path id="Trazado_206" data-name="Trazado 206" d="M73.35,50.09a7.04,7.04,0,1,1,7.04-7.04,2.15,2.15,0,0,1-4.3,0,2.74,2.74,0,1,0-2.74,2.74,2.15,2.15,0,1,1,0,4.3Z"/>
    </g>
  </g>
</svg>
