<?xml version="1.0" encoding="utf-8"?>
<!-- Generator: Adobe Illustrator 24.1.3, SVG Export Plug-In . SVG Version: 6.00 Build 0)  -->
<svg version="1.1" id="Capa_1" xmlns="http://www.w3.org/2000/svg" xmlns:xlink="http://www.w3.org/1999/xlink" x="0px" y="0px"
	 viewBox="0 0 24 24" style="enable-background:new 0 0 24 24;" xml:space="preserve">
<style type="text/css">
	.st0{fill:#252828;}
</style>
<g>
	<g>
		<path class="st0" d="M12.02,11.37c-1.05,0-1.91-0.85-1.91-1.91s0.85-1.91,1.91-1.91c1.05,0,1.91,0.85,1.91,1.91
			S13.07,11.37,12.02,11.37z M12.02,8.51c-0.53,0-0.95,0.43-0.95,0.95c0,0.53,0.43,0.95,0.95,0.95c0.53,0,0.95-0.43,0.95-0.95
			C12.97,8.94,12.54,8.51,12.02,8.51z"/>
	</g>
	<g>
		<path class="st0" d="M11.54,9.9c-0.03,0-0.05,0-0.08-0.01C9.61,9.57,8.21,7.65,8.21,5.42c0-2.5,1.71-4.53,3.81-4.53
			s3.81,2.03,3.81,4.53c0,0.26-0.21,0.48-0.48,0.48s-0.48-0.21-0.48-0.48c0-1.97-1.28-3.57-2.86-3.57s-2.86,1.6-2.86,3.57
			c0,1.77,1.06,3.29,2.46,3.54c0.26,0.05,0.43,0.29,0.39,0.55C11.97,9.74,11.77,9.9,11.54,9.9z"/>
	</g>
	<g>
		<path class="st0" d="M12.03,23.28c-4.9-0.12-8-0.89-9.25-2.29c-1.04-1.17-1.02-3.13,0.07-5.85c0.94-2.35,2.78-5.27,4.7-7.42
			c0.17-0.2,0.48-0.21,0.67-0.04c0.2,0.17,0.21,0.48,0.04,0.67c-1.82,2.05-3.64,4.92-4.53,7.14c-0.93,2.32-1.01,4-0.24,4.86
			c1.04,1.16,4.07,1.86,8.54,1.97c4.45-0.11,7.48-0.81,8.51-1.97c0.77-0.86,0.69-2.54-0.24-4.86c-1.64-4.11-6.12-9.84-8.29-9.84
			c-0.43,0-0.99,0.25-1.64,0.71c-0.21,0.15-0.51,0.1-0.66-0.11c-0.15-0.21-0.1-0.51,0.11-0.66C10.65,5,11.39,4.7,12.02,4.7
			c2.86,0,7.53,6.33,9.17,10.44c1.08,2.72,1.11,4.69,0.07,5.85C20.01,22.39,16.9,23.16,12.03,23.28z"/>
	</g>
	<g>
		<path class="st0" d="M15.83,19.47c-0.89,0-1.63-0.61-1.84-1.43h-3.93c-0.21,0.82-0.96,1.43-1.85,1.43c-1.05,0-1.91-0.85-1.91-1.91
			c0-0.44,0.15-0.86,0.42-1.19c-0.27-0.33-0.42-0.75-0.42-1.19c0-1.05,0.85-1.91,1.91-1.91c0.89,0,1.63,0.61,1.85,1.43h3.93
			c0.21-0.82,0.96-1.43,1.84-1.43c1.05,0,1.91,0.85,1.91,1.91c0,0.44-0.15,0.86-0.42,1.19c0.27,0.33,0.42,0.75,0.42,1.19
			C17.74,18.62,16.88,19.47,15.83,19.47z M9.64,17.09h4.76c0.26,0,0.48,0.21,0.48,0.48c0,0.53,0.43,0.95,0.95,0.95
			c0.53,0,0.95-0.43,0.95-0.95c0-0.32-0.16-0.62-0.43-0.79c-0.13-0.09-0.21-0.24-0.21-0.4s0.08-0.31,0.21-0.4
			c0.27-0.18,0.43-0.47,0.43-0.79c0-0.53-0.43-0.95-0.95-0.95c-0.53,0-0.95,0.43-0.95,0.95c0,0.26-0.21,0.48-0.48,0.48H9.64
			c-0.26,0-0.48-0.21-0.48-0.48c0-0.53-0.43-0.95-0.95-0.95s-0.95,0.43-0.95,0.95c0,0.32,0.16,0.62,0.43,0.79
			c0.13,0.09,0.21,0.24,0.21,0.4s-0.08,0.31-0.21,0.4c-0.27,0.18-0.43,0.47-0.43,0.79c0,0.53,0.43,0.95,0.95,0.95
			s0.95-0.43,0.95-0.95C9.16,17.3,9.37,17.09,9.64,17.09z"/>
	</g>
</g>
</svg>
