<?xml version="1.0" encoding="utf-8"?>
<!-- Generator: Adobe Illustrator 24.1.3, SVG Export Plug-In . SVG Version: 6.00 Build 0)  -->
<svg version="1.1" id="Capa_1" xmlns="http://www.w3.org/2000/svg" xmlns:xlink="http://www.w3.org/1999/xlink" x="0px" y="0px"
	 viewBox="0 0 21.4 20.8" style="enable-background:new 0 0 21.4 20.8;" xml:space="preserve">
<style type="text/css">
	.st0{fill:#252828;}
</style>
<g id="dog-house" transform="translate(0.002 0.001)">
	<path id="Trazado_1" class="st0" d="M7.9,9.9c0.7,0,1.2-0.5,1.3-1.2h2.9c0.1,0.7,0.7,1.2,1.4,1.2c0.7-0.1,1.2-0.7,1.2-1.4
		c0-0.3-0.1-0.6-0.3-0.8c0.5-0.5,0.5-1.3-0.1-1.8C13.8,5.4,13,5.5,12.5,6c-0.2,0.2-0.3,0.5-0.3,0.8H9.2C9.2,6,8.6,5.5,7.9,5.6
		C7.1,5.6,6.6,6.2,6.7,7c0,0.3,0.1,0.6,0.3,0.8C6.5,8.3,6.6,9.1,7.1,9.6C7.3,9.8,7.6,9.9,7.9,9.9L7.9,9.9z M7.5,7.3
		C7.3,7.1,7.2,6.9,7.3,6.6c0.1-0.3,0.5-0.5,0.9-0.4c0.3,0.1,0.4,0.4,0.4,0.7c0,0.2,0.1,0.4,0.3,0.4c0,0,0,0,0,0h3.4
		c0.2,0,0.4-0.2,0.4-0.4c0,0,0,0,0,0c0-0.4,0.2-0.7,0.6-0.7s0.7,0.2,0.7,0.6c0,0.2,0,0.4-0.2,0.6c-0.2,0.2-0.2,0.6,0,0.8
		c0,0,0,0,0,0C14,8.3,14.1,8.6,14,8.8c-0.1,0.3-0.5,0.5-0.8,0.4c-0.3-0.1-0.5-0.4-0.4-0.7c0-0.2-0.1-0.4-0.3-0.4c0,0,0,0-0.1,0H9
		c-0.1,0-0.2,0-0.3,0.1C8.6,8.3,8.6,8.5,8.6,8.6c0,0.4-0.3,0.7-0.7,0.7C7.6,9.3,7.3,9,7.3,8.6c0-0.2,0.1-0.3,0.2-0.5
		C7.7,7.9,7.7,7.6,7.5,7.3C7.5,7.3,7.5,7.3,7.5,7.3L7.5,7.3z"/>
	<path id="Trazado_2" class="st0" d="M18.8,12.4c0.2,0,0.3-0.1,0.3-0.3V8.2l0.6,0.4c0.5,0.3,1.2,0.2,1.5-0.3
		c0.3-0.5,0.2-1.2-0.3-1.5l-9.6-6.6c-0.4-0.3-0.9-0.3-1.2,0L0.5,6.8C0,7.2-0.2,7.9,0.2,8.4c0.3,0.5,1,0.6,1.5,0.3l0,0l0.6-0.4v10.6
		C2,19,1.8,19.3,1.8,19.6V20c0,0.4,0.3,0.8,0.8,0.8h7.4c0.2,0,0.3-0.1,0.3-0.3s-0.1-0.3-0.3-0.3c0,0,0,0,0,0H2.5
		c-0.1,0-0.1-0.1-0.1-0.1v-0.4c0-0.1,0.1-0.1,0.1-0.1h16.3c0.1,0,0.1,0.1,0.1,0.1V20c0,0.1-0.1,0.1-0.1,0.1h-7.4
		c-0.2,0-0.3,0.1-0.3,0.3c0,0.2,0.1,0.3,0.3,0.3h7.4c0.4,0,0.8-0.3,0.8-0.8v-0.4c0-0.3-0.2-0.6-0.5-0.7v-5.3c0-0.2-0.1-0.3-0.3-0.3
		c-0.2,0-0.3,0.1-0.3,0.3v3.3H15v-1.6c0-2.4-2-4.3-4.4-4.3c-2.3,0-4.2,1.9-4.3,4.3v1.6H2.9v-9l7.8-5.4l7.8,5.4v4.3
		C18.5,12.3,18.6,12.4,18.8,12.4L18.8,12.4z M15,17.4h3.4v1.4H15L15,17.4z M7,15.2c0-2.1,1.7-3.7,3.8-3.7c2,0,3.6,1.6,3.7,3.7v3.6H7
		V15.2z M6.3,17.4v1.4H2.9v-1.4H6.3z M10.9,1.8c-0.1-0.1-0.2-0.1-0.4,0L1.4,8.1C1.1,8.3,0.9,8.2,0.7,8C0.6,7.8,0.6,7.5,0.8,7.3
		l9.6-6.6c0.2-0.1,0.4-0.1,0.5,0l9.6,6.6c0.2,0.2,0.2,0.4,0.1,0.7c-0.1,0.2-0.4,0.2-0.6,0.1L10.9,1.8z"/>
</g>
</svg>
