<?xml version="1.0" encoding="utf-8"?>
<!-- Generator: Adobe Illustrator 24.1.3, SVG Export Plug-In . SVG Version: 6.00 Build 0)  -->
<svg version="1.1" id="Capa_1" xmlns="http://www.w3.org/2000/svg" xmlns:xlink="http://www.w3.org/1999/xlink" x="0px" y="0px"
	 viewBox="0 0 20.8 20.8" style="enable-background:new 0 0 20.8 20.8;" xml:space="preserve">
<style type="text/css">
	.st0{fill:#252828;}
</style>
<g id="email" transform="translate(0 -0.01)">
	<g id="Grupo_2" transform="translate(0 0.01)">
		<g id="Grupo_1" transform="translate(0 0)">
			<path id="Trazado_36" class="st0" d="M20.3,6.9l-6.4-6.4c-0.7-0.7-1.8-0.7-2.5,0l-10,10c-0.7,0.7-0.7,1.8,0,2.5l1.6,1.6l-1.8,1.8
				C1,16.6,1.1,16.8,1.2,17c0.2,0.1,0.4,0.1,0.5,0l1.8-1.8L4.3,16l-4.1,4.1c-0.2,0.2-0.1,0.4,0,0.6c0.2,0.1,0.4,0.1,0.6,0l4.1-4.1
				l2.9,2.9c0.7,0.7,1.8,0.7,2.5,0l10-10C21,8.8,21,7.6,20.3,6.9L20.3,6.9z M8.7,19.1c-0.1,0-0.3-0.1-0.4-0.2l-6.4-6.4
				c-0.2-0.2-0.3-0.6-0.2-0.9h7V19.1z M7.2,10.7l1.2-1.2c0.2-0.2,0.1-0.4,0-0.6C8.3,8.8,8,8.8,7.9,8.9l-1.8,1.8H4.9l3.7-3.7
				c0.2-0.2,0.2-0.4,0-0.6C8.4,6.3,8.2,6.3,8,6.5c0,0,0,0,0,0l-4.2,4.2H2.3l9.2-9.2v8.3c0,0.5-0.4,1-1,1L7.2,10.7z M19.7,8.9l-10,10
				C9.6,18.9,9.6,19,9.5,19v-7.5h1c1,0,1.8-0.8,1.8-1.8v-1H17l-2.4,2.4c-0.2,0.2-0.1,0.4,0,0.6c0.2,0.1,0.4,0.1,0.6,0l2.9-2.9h1.7
				C19.8,8.8,19.7,8.8,19.7,8.9z M12.4,7.9V0.8c0.3-0.1,0.7,0,0.9,0.2l6.4,6.4c0.1,0.1,0.2,0.2,0.2,0.4H12.4z"/>
		</g>
	</g>
	<g id="Grupo_4" transform="translate(8.854 5.358)">
		<g id="Grupo_3">
			<path id="Trazado_37" class="st0" d="M0.7,0.1C0.6,0,0.3,0,0.1,0.1C0,0.3,0,0.6,0.1,0.7c0.2,0.2,0.4,0.2,0.6,0
				c0.1-0.1,0.1-0.2,0.1-0.3C0.9,0.3,0.8,0.2,0.7,0.1z"/>
		</g>
	</g>
	<g id="Grupo_6" transform="translate(0.002 17.102)">
		<g id="Grupo_5">
			<path id="Trazado_38" class="st0" d="M0.7,0.1C0.6,0,0.3,0,0.1,0.1C0,0.3,0,0.6,0.1,0.7s0.4,0.2,0.6,0c0.1-0.1,0.1-0.2,0.1-0.3
				C0.9,0.3,0.8,0.2,0.7,0.1z"/>
		</g>
	</g>
	<g id="Grupo_8" transform="translate(2.821 17.94)">
		<g id="Grupo_7">
			<path id="Trazado_39" class="st0" d="M2.7,0.1C2.6,0,2.3,0,2.1,0.1l-2,2C0,2.3,0,2.6,0.1,2.7c0.2,0.2,0.4,0.2,0.6,0l2-2
				C2.9,0.6,2.9,0.3,2.7,0.1z"/>
		</g>
	</g>
</g>
</svg>
