<svg xmlns="http://www.w3.org/2000/svg" width="20.791" height="20.79" viewBox="0 0 20.791 20.79">
  <g id="email" transform="translate(0 -0.01)">
    <g id="Grupo_2" data-name="Grupo 2" transform="translate(0 0.01)">
      <g id="Grupo_1" data-name="Grupo 1" transform="translate(0 0)">
        <path id="Trazado_36" data-name="Trazado 36" d="M20.269,6.942,13.857.53a1.782,1.782,0,0,0-2.517,0L1.333,10.537a1.782,1.782,0,0,0,0,2.517l1.609,1.609L1.176,16.43A.406.406,0,0,0,1.75,17l1.767-1.767.736.736L.119,20.107a.406.406,0,0,0,.574.574l4.133-4.133,2.919,2.919a1.782,1.782,0,0,0,2.517,0L20.269,9.46a1.78,1.78,0,0,0,0-2.517ZM8.709,19.128a.961.961,0,0,1-.389-.236L1.908,12.48a.968.968,0,0,1-.249-.935H8.709Zm-1.468-8.4,1.2-1.2a.406.406,0,0,0-.574-.574L6.093,10.732H4.91L8.581,7.061a.406.406,0,1,0-.574-.574L3.761,10.732H2.287l9.249-9.249V9.765a.969.969,0,0,1-.968.968ZM19.7,8.885,9.689,18.892a.966.966,0,0,1-.167.133v-7.48h1.046a1.782,1.782,0,0,0,1.78-1.78V8.718H17l-2.35,2.35a.406.406,0,0,0,.574.574l2.924-2.924h1.678A.974.974,0,0,1,19.7,8.885Zm-7.347-.979V.855a.968.968,0,0,1,.935.249L19.7,7.517a.963.963,0,0,1,.238.389Z" transform="translate(0 -0.01)" fill="#1aa3db"/>
      </g>
    </g>
    <g id="Grupo_4" data-name="Grupo 4" transform="translate(8.854 5.358)">
      <g id="Grupo_3" data-name="Grupo 3">
        <path id="Trazado_37" data-name="Trazado 37" d="M219.466,132.248a.437.437,0,1,0,.128.309A.439.439,0,0,0,219.466,132.248Z" transform="translate(-218.72 -132.12)" fill="#1aa3db"/>
      </g>
    </g>
    <g id="Grupo_6" data-name="Grupo 6" transform="translate(0.002 17.102)">
      <g id="Grupo_5" data-name="Grupo 5">
        <path id="Trazado_38" data-name="Trazado 38" d="M.786,427.548a.437.437,0,1,0,.128.309A.44.44,0,0,0,.786,427.548Z" transform="translate(-0.04 -427.42)" fill="#1aa3db"/>
      </g>
    </g>
    <g id="Grupo_8" data-name="Grupo 8" transform="translate(2.821 17.94)">
      <g id="Grupo_7" data-name="Grupo 7">
        <path id="Trazado_39" data-name="Trazado 39" d="M67.262,446.7a.437.437,0,0,0-.618,0l-1.986,1.985a.437.437,0,0,0,.618.618l1.986-1.986A.437.437,0,0,0,67.262,446.7Z" transform="translate(-64.53 -446.568)" fill="#1aa3db"/>
      </g>
    </g>
  </g>
</svg>
