<svg xmlns="http://www.w3.org/2000/svg" width="23.035" height="20.79" viewBox="0 0 23.035 20.79">
  <g id="heart" transform="translate(0 -0.501)">
    <path id="Trazado_42" data-name="Trazado 42" d="M40.437,262.6a.437.437,0,1,0,.437.437A.437.437,0,0,0,40.437,262.6Zm0,0" transform="translate(-38.251 -250.29)" fill="#fff"/>
    <path id="Trazado_43" data-name="Trazado 43" d="M20.679,225.863l-4.241,1.417a1.7,1.7,0,0,0,.029-.31,1.777,1.777,0,0,0-1.8-1.749H11.753a.46.46,0,0,1-.221-.056l-2.377-1.3a3.223,3.223,0,0,0-1.544-.394H4.422a1.35,1.35,0,0,0-1.272-.874H.45a.444.444,0,0,0-.45.437v7.872a.444.444,0,0,0,.45.437h2.7a1.352,1.352,0,0,0,1.26-.842,4.2,4.2,0,0,1,1.469.424L8.231,232.3a5.881,5.881,0,0,0,5.324.3l8.4-3.594a1.677,1.677,0,0,0,.858-2.407,1.77,1.77,0,0,0-2.131-.729ZM3.6,230.034a.444.444,0,0,1-.45.435H.9v-7h2.25a.444.444,0,0,1,.45.437Zm18.011-1.843-.014.006-8.411,3.6a4.958,4.958,0,0,1-4.491-.248l-2.353-1.372a5.065,5.065,0,0,0-1.842-.544v-5.285H7.611a2.3,2.3,0,0,1,1.1.281l2.377,1.3a1.382,1.382,0,0,0,.662.169h2.914a.875.875,0,1,1,0,1.749H10.093a.437.437,0,1,0,0,.874h4.574a1.838,1.838,0,0,0,.843-.2l5.47-1.828a.867.867,0,0,1,1.038.321.813.813,0,0,1-.408,1.183Zm0,0" transform="translate(0 -211.802)" fill="#fff"/>
    <path id="Trazado_44" data-name="Trazado 44" d="M165.691,11.108a.438.438,0,0,0,.573,0c3.568-3.092,5.775-4.657,5.775-7.089A3.348,3.348,0,0,0,168.764.5a3.238,3.238,0,0,0-2.839,1.811,3.18,3.18,0,0,0-5.958.607.437.437,0,1,0,.839.246,2.373,2.373,0,0,1,2.281-1.79A2.736,2.736,0,0,1,165.5,3.515a.437.437,0,0,0,.843,0c.006-.021.613-2.139,2.417-2.139a2.475,2.475,0,0,1,2.4,2.644c0,1.945-1.9,3.348-5.187,6.181a35.081,35.081,0,0,1-4.5-4.113.437.437,0,1,0-.7.531,38.752,38.752,0,0,0,4.905,4.491Zm0,0" transform="translate(-152.309)" fill="#fff"/>
    <path id="Trazado_45" data-name="Trazado 45" d="M159.437,88.6a.437.437,0,1,0,.437.437A.438.438,0,0,0,159.437,88.6Zm0,0" transform="translate(-151.838 -84.128)" fill="#fff"/>
  </g>
</svg>
