<?xml version="1.0" encoding="utf-8"?>
<!-- Generator: Adobe Illustrator 24.1.3, SVG Export Plug-In . SVG Version: 6.00 Build 0)  -->
<svg version="1.1" id="Capa_1" xmlns="http://www.w3.org/2000/svg" xmlns:xlink="http://www.w3.org/1999/xlink" x="0px" y="0px"
	 viewBox="0 0 22.5 20.8" style="enable-background:new 0 0 22.5 20.8;" xml:space="preserve">
<style type="text/css">
	.st0{fill:#252828;}
</style>
<g id="news" transform="translate(0.001 0.001)">
	<path id="Trazado_25" class="st0" d="M21.3,0H4.9C4.3,0,3.8,0.5,3.8,1.1v1.7H1.1C0.5,2.9,0,3.4,0,4v14.6c0,1.2,1,2.2,2.2,2.2h11.7
		c0.2,0,0.3-0.1,0.3-0.3s-0.1-0.3-0.3-0.3c0,0,0,0,0,0H3.8c0.4-0.4,0.6-1,0.6-1.6v-7.7c0-0.2-0.1-0.3-0.3-0.3
		c-0.2,0-0.3,0.1-0.3,0.3v7.7c0,0.9-0.7,1.5-1.5,1.6h0c-0.9,0-1.5-0.7-1.6-1.6V4c0-0.3,0.2-0.5,0.5-0.5l0,0h2.6v6.1
		c0,0.2,0.1,0.3,0.3,0.3c0.2,0,0.3-0.1,0.3-0.3V1.1c0-0.3,0.2-0.5,0.5-0.5h16.4c0.3,0,0.5,0.2,0.5,0.5v17.4c0,0.9-0.7,1.6-1.6,1.6
		h-5.2c-0.2,0-0.3,0.1-0.3,0.3s0.1,0.3,0.3,0.3h5.2c1.2,0,2.2-1,2.2-2.2V1.1C22.5,0.5,22,0,21.3,0z"/>
	<path id="Trazado_26" class="st0" d="M7.2,13.1h4.4c0.4,0,0.8-0.3,0.8-0.8V7.9c0-0.4-0.3-0.8-0.8-0.8H7.2c-0.4,0-0.8,0.3-0.8,0.8
		v4.4C6.5,12.7,6.8,13.1,7.2,13.1z M7.1,7.9c0-0.1,0.1-0.1,0.1-0.1h4.4c0.1,0,0.1,0.1,0.1,0.1v4.4c0,0.1-0.1,0.1-0.1,0.1H7.2
		c-0.1,0-0.1-0.1-0.1-0.1V7.9z"/>
	<path id="Trazado_27" class="st0" d="M13.9,7.7h6c0.2,0,0.3-0.1,0.3-0.3c0-0.2-0.1-0.3-0.3-0.3h-6c-0.2,0-0.3,0.1-0.3,0.3
		C13.5,7.6,13.7,7.7,13.9,7.7z"/>
	<path id="Trazado_28" class="st0" d="M13.9,10.4h6c0.2,0,0.3-0.1,0.3-0.3c0-0.2-0.1-0.3-0.3-0.3h-6c-0.2,0-0.3,0.1-0.3,0.3
		C13.5,10.3,13.7,10.4,13.9,10.4z"/>
	<path id="Trazado_29" class="st0" d="M13.9,13.1h6c0.2,0,0.3-0.1,0.3-0.3s-0.1-0.3-0.3-0.3c0,0,0,0,0,0h-6c-0.2,0-0.3,0.1-0.3,0.3
		S13.7,13.1,13.9,13.1C13.9,13.1,13.9,13.1,13.9,13.1z"/>
	<path id="Trazado_30" class="st0" d="M7.1,15.8h12.8c0.2,0,0.3-0.1,0.3-0.3s-0.1-0.3-0.3-0.3c0,0,0,0,0,0H7.1
		c-0.2,0-0.3,0.1-0.3,0.3S6.9,15.8,7.1,15.8C7.1,15.8,7.1,15.8,7.1,15.8z"/>
	<path id="Trazado_31" class="st0" d="M7.1,18.6h12.8c0.2,0,0.3-0.1,0.3-0.3s-0.1-0.3-0.3-0.3c0,0,0,0,0,0H7.1
		c-0.2,0-0.3,0.1-0.3,0.3S6.9,18.6,7.1,18.6C7.1,18.6,7.1,18.6,7.1,18.6z"/>
	<path id="Trazado_32" class="st0" d="M6.5,5.3V1.9c0-0.1,0-0.1,0.1-0.2c0.1,0,0.2-0.1,0.2-0.1c0.1,0,0.2,0,0.3,0.1
		C7.2,1.8,7.3,1.9,7.3,2l1,2V1.9c0-0.1,0-0.1,0.1-0.2c0.2-0.1,0.3-0.1,0.5,0C9,1.7,9,1.8,9,1.9v3.4c0,0.1,0,0.1-0.1,0.2
		c-0.1,0-0.2,0.1-0.2,0.1c-0.2,0-0.3-0.1-0.4-0.2L7.1,3.2v2.1c0,0.1,0,0.1-0.1,0.2c-0.2,0.1-0.3,0.1-0.5,0C6.5,5.4,6.5,5.3,6.5,5.3z
		"/>
	<path id="Trazado_33" class="st0" d="M9.7,5.3V1.9c0-0.1,0-0.1,0.1-0.2c0.1,0,0.1-0.1,0.2-0.1h1.9c0.1,0,0.1,0,0.2,0.1
		c0,0.1,0.1,0.1,0.1,0.2c0,0.1,0,0.2-0.1,0.2c0,0.1-0.1,0.1-0.2,0.1h-1.5v1.1h0.8c0.1,0,0.1,0,0.2,0.1c0,0.1,0.1,0.1,0.1,0.2
		c0,0.1,0,0.1-0.1,0.2c0,0.1-0.1,0.1-0.2,0.1h-0.8v1.1h1.5c0.1,0,0.1,0,0.2,0.1c0,0.1,0.1,0.1,0.1,0.2c0,0.1,0,0.1-0.1,0.2
		c0,0.1-0.1,0.1-0.2,0.1H10c-0.1,0-0.1,0-0.2-0.1C9.7,5.4,9.7,5.3,9.7,5.3L9.7,5.3z"/>
	<path id="Trazado_34" class="st0" d="M12.5,1.9c0-0.1,0.1-0.2,0.1-0.2c0.1-0.1,0.2-0.1,0.3-0.1c0.1,0,0.2,0,0.2,0.1L14,4.6l0.4-1.8
		c0-0.1,0.1-0.2,0.3-0.2s0.3,0.1,0.3,0.2l0.4,1.8l0.8-2.8c0-0.1,0.1-0.1,0.2-0.1c0.1,0,0.2,0,0.3,0.1c0.1,0,0.1,0.1,0.1,0.2
		c0,0,0,0,0,0.1l-1,3.3c-0.1,0.2-0.2,0.2-0.4,0.2c-0.1,0-0.2,0-0.3-0.1c-0.1,0-0.1-0.1-0.2-0.2l-0.3-1.4l-0.3,1.4
		c0,0.1-0.1,0.1-0.2,0.2c-0.1,0-0.2,0.1-0.3,0.1c-0.1,0-0.2,0-0.3-0.1c-0.1,0-0.1-0.1-0.2-0.2L12.5,1.9C12.5,2,12.5,1.9,12.5,1.9z"
		/>
	<path id="Trazado_35" class="st0" d="M17.4,4.9c0-0.1,0-0.2,0.1-0.2c0-0.1,0.1-0.1,0.2-0.1c0.1,0,0.1,0,0.2,0.1
		c0.1,0,0.1,0.1,0.2,0.1c0.1,0.1,0.1,0.1,0.2,0.1c0.1,0,0.2,0.1,0.3,0.1c0.1,0,0.3,0,0.4-0.1c0.1-0.1,0.2-0.2,0.2-0.3
		c0-0.1,0-0.2-0.1-0.3C19,4.1,18.9,4,18.8,4c-0.1-0.1-0.2-0.1-0.3-0.2s-0.2-0.1-0.4-0.2c-0.1-0.1-0.2-0.1-0.3-0.2
		c-0.1-0.1-0.2-0.2-0.2-0.3c-0.1-0.1-0.1-0.3-0.1-0.4c0-0.2,0-0.3,0.1-0.5c0.1-0.1,0.2-0.3,0.3-0.3c0.1-0.1,0.3-0.1,0.4-0.2
		c0.1,0,0.3-0.1,0.5-0.1c0.1,0,0.2,0,0.3,0c0.1,0,0.2,0,0.3,0.1c0.1,0,0.2,0.1,0.3,0.1c0.1,0.1,0.1,0.1,0.1,0.2c0,0.1,0,0.2-0.1,0.2
		c0,0.1-0.1,0.1-0.2,0.1c-0.1,0-0.2-0.1-0.3-0.1c-0.1-0.1-0.3-0.1-0.5-0.1c-0.2,0-0.3,0-0.4,0.1c-0.2,0.1-0.2,0.3-0.1,0.5
		c0,0,0,0.1,0.1,0.1C18.4,3,18.5,3,18.6,3.1c0.1,0,0.3,0.1,0.4,0.2c0.1,0.1,0.3,0.1,0.4,0.2c0.1,0.1,0.2,0.2,0.3,0.4
		c0.1,0.2,0.1,0.4,0.1,0.6c0,0.3-0.1,0.6-0.3,0.8c-0.3,0.2-0.6,0.3-0.9,0.3c-0.3,0-0.6-0.1-0.9-0.2C17.5,5.2,17.4,5,17.4,4.9z"/>
</g>
</svg>
