<svg xmlns="http://www.w3.org/2000/svg" width="22.466" height="20.79" viewBox="0 0 22.466 20.79">
  <g id="news" transform="translate(0.001 0.001)">
    <path id="Trazado_25" data-name="Trazado 25" d="M21.331,0H4.894A1.135,1.135,0,0,0,3.761,1.133V2.855H1.133A1.135,1.135,0,0,0,0,3.989V18.58a2.212,2.212,0,0,0,2.194,2.209H13.85a.329.329,0,1,0,0-.658H3.781a2.2,2.2,0,0,0,.638-1.551v-7.7a.329.329,0,0,0-.658,0v7.7a1.553,1.553,0,0,1-1.543,1.551H2.209A1.553,1.553,0,0,1,.658,18.58V3.989a.476.476,0,0,1,.476-.476H3.761V9.656a.329.329,0,0,0,.658,0V1.133A.476.476,0,0,1,4.894.658H21.331a.476.476,0,0,1,.476.476V18.58a1.553,1.553,0,0,1-1.552,1.551H15.079a.329.329,0,0,0,0,.658h5.176a2.212,2.212,0,0,0,2.21-2.21V1.133A1.135,1.135,0,0,0,21.331,0Zm0,0" fill="#1aa3db"/>
    <path id="Trazado_26" data-name="Trazado 26" d="M147.338,166.862h4.428a.765.765,0,0,0,.764-.764v-4.428a.765.765,0,0,0-.764-.764h-4.428a.765.765,0,0,0-.764.764V166.1A.765.765,0,0,0,147.338,166.862Zm-.118-5.191a.118.118,0,0,1,.118-.118h4.428a.118.118,0,0,1,.118.118V166.1a.118.118,0,0,1-.118.118h-4.428a.118.118,0,0,1-.118-.118Zm0,0" transform="translate(-140.098 -153.792)" fill="#1aa3db"/>
    <path id="Trazado_27" data-name="Trazado 27" d="M305.014,161.552h5.992a.323.323,0,0,0,0-.646h-5.992a.323.323,0,0,0,0,.646Zm0,0" transform="translate(-291.149 -153.842)" fill="#1aa3db"/>
    <path id="Trazado_28" data-name="Trazado 28" d="M305.014,223.232h5.992a.323.323,0,0,0,0-.646h-5.992a.323.323,0,0,0,0,.646Zm0,0" transform="translate(-291.149 -212.814)" fill="#1aa3db"/>
    <path id="Trazado_29" data-name="Trazado 29" d="M305.014,284.908h5.992a.323.323,0,1,0,0-.646h-5.992a.323.323,0,1,0,0,.646Zm0,0" transform="translate(-291.149 -271.782)" fill="#1aa3db"/>
    <path id="Trazado_30" data-name="Trazado 30" d="M146.9,346.584h12.8a.323.323,0,1,0,0-.646H146.9a.323.323,0,1,0,0,.646Zm0,0" transform="translate(-139.838 -330.75)" fill="#1aa3db"/>
    <path id="Trazado_31" data-name="Trazado 31" d="M146.9,408.263h12.8a.323.323,0,1,0,0-.646H146.9a.323.323,0,1,0,0,.646Zm0,0" transform="translate(-139.838 -389.677)" fill="#1aa3db"/>
    <path id="Trazado_32" data-name="Trazado 32" d="M146.766,41.9V38.485a.174.174,0,0,1,.1-.16.493.493,0,0,1,.242-.055.511.511,0,0,1,.289.068.854.854,0,0,1,.221.294l1.014,1.961V38.48a.169.169,0,0,1,.1-.158.582.582,0,0,1,.484,0,.169.169,0,0,1,.1.158V41.9a.176.176,0,0,1-.1.158.477.477,0,0,1-.239.058.41.41,0,0,1-.394-.216l-1.13-2.113V41.9a.175.175,0,0,1-.1.158.529.529,0,0,1-.481,0A.176.176,0,0,1,146.766,41.9Zm0,0" transform="translate(-140.311 -36.622)" fill="#1aa3db"/>
    <path id="Trazado_33" data-name="Trazado 33" d="M220.645,41.9V38.485a.179.179,0,0,1,.089-.158.378.378,0,0,1,.21-.058h1.871a.177.177,0,0,1,.16.089.382.382,0,0,1,.055.2.389.389,0,0,1-.058.216.179.179,0,0,1-.158.089h-1.488V39.92h.8a.184.184,0,0,1,.158.082.323.323,0,0,1,.058.192.317.317,0,0,1-.055.181.181.181,0,0,1-.16.081h-.8v1.057h1.488a.179.179,0,0,1,.158.089.389.389,0,0,1,.058.216.382.382,0,0,1-.055.2.177.177,0,0,1-.16.089h-1.871a.378.378,0,0,1-.21-.058.179.179,0,0,1-.089-.158Zm0,0" transform="translate(-210.942 -36.622)" fill="#1aa3db"/>
    <path id="Trazado_34" data-name="Trazado 34" d="M284.023,38.543a.23.23,0,0,1,.142-.192.583.583,0,0,1,.294-.082q.189,0,.226.137l.831,2.849.447-1.829q.047-.189.336-.189t.331.189l.447,1.829.83-2.849q.037-.137.226-.137a.584.584,0,0,1,.294.082.23.23,0,0,1,.142.192.2.2,0,0,1-.01.063l-1.041,3.306q-.079.232-.447.231a.648.648,0,0,1-.284-.061.256.256,0,0,1-.152-.171l-.336-1.419-.342,1.419a.256.256,0,0,1-.152.171.648.648,0,0,1-.284.061.66.66,0,0,1-.289-.061.273.273,0,0,1-.158-.171l-1.041-3.306A.2.2,0,0,1,284.023,38.543Zm0,0" transform="translate(-271.5 -36.623)" fill="#1aa3db"/>
    <path id="Trazado_35" data-name="Trazado 35" d="M393.68,40.92a.409.409,0,0,1,.092-.244.26.26,0,0,1,.208-.123.269.269,0,0,1,.155.066,1.789,1.789,0,0,1,.168.145.772.772,0,0,0,.234.145.842.842,0,0,0,.336.065.725.725,0,0,0,.421-.116.387.387,0,0,0,.168-.341.459.459,0,0,0-.092-.281.731.731,0,0,0-.242-.2q-.15-.081-.328-.158t-.36-.171a2.1,2.1,0,0,1-.331-.213.85.85,0,0,1-.242-.315,1.049,1.049,0,0,1-.092-.449,1.061,1.061,0,0,1,.113-.5.86.86,0,0,1,.3-.336,1.414,1.414,0,0,1,.4-.176,1.812,1.812,0,0,1,.457-.056,2.355,2.355,0,0,1,.289.019,2.674,2.674,0,0,1,.323.062.68.68,0,0,1,.278.135.276.276,0,0,1,.108.216.478.478,0,0,1-.073.242.224.224,0,0,1-.2.125.99.99,0,0,1-.258-.1,1.076,1.076,0,0,0-.468-.1.762.762,0,0,0-.439.108.352.352,0,0,0-.029.562.989.989,0,0,0,.313.184q.186.071.4.179a3.46,3.46,0,0,1,.4.234.981.981,0,0,1,.313.365,1.184,1.184,0,0,1,.126.56,1.033,1.033,0,0,1-.344.832,1.352,1.352,0,0,1-.907.293,1.694,1.694,0,0,1-.857-.205Q393.68,41.162,393.68,40.92Zm0,0" transform="translate(-376.308 -36.036)" fill="#1aa3db"/>
  </g>
</svg>
