<?xml version="1.0" encoding="utf-8"?>
<!-- Generator: Adobe Illustrator 24.1.3, SVG Export Plug-In . SVG Version: 6.00 Build 0)  -->
<svg version="1.1" id="Capa_1" xmlns="http://www.w3.org/2000/svg" xmlns:xlink="http://www.w3.org/1999/xlink" x="0px" y="0px"
	 viewBox="0 0 22.6 20.8" style="enable-background:new 0 0 22.6 20.8;" xml:space="preserve">
<style type="text/css">
	.st0{fill:#252828;}
</style>
<g id="paw-print" transform="translate(0 -20.94)">
	<path id="Trazado_20" class="st0" d="M8,27.1c1.5,0,2.4-1.5,2.4-3.1s-1-3.1-2.4-3.1S5.6,22.5,5.6,24S6.5,27.1,8,27.1z M8,21.8
		c0.8,0,1.5,1,1.5,2.2S8.8,26.2,8,26.2s-1.5-1-1.5-2.2S7.2,21.8,8,21.8z"/>
	<path id="Trazado_21" class="st0" d="M14.6,27.1c1.5,0,2.4-1.5,2.4-3.1s-1-3.1-2.4-3.1s-2.4,1.5-2.4,3.1S13.2,27.1,14.6,27.1z
		 M14.6,21.8c0.8,0,1.5,1,1.5,2.2s-0.7,2.2-1.5,2.2s-1.5-1-1.5-2.2S13.8,21.8,14.6,21.8z"/>
	<path id="Trazado_22" class="st0" d="M4.2,32c1.3-0.7,1.3-2.6,0.6-3.9s-2.4-2.2-3.7-1.5s-1.3,2.5-0.6,3.9S2.9,32.8,4.2,32z
		 M1.5,27.4c0.8-0.5,1.9,0.3,2.4,1.1l0,0c0.5,0.9,0.6,2.2-0.2,2.7S1.8,31,1.3,30.1S0.7,27.9,1.5,27.4L1.5,27.4z"/>
	<path id="Trazado_23" class="st0" d="M18.5,32c1.3,0.7,2.9-0.1,3.7-1.5s0.7-3.2-0.6-3.9s-2.9,0.1-3.7,1.5S17.2,31.3,18.5,32z
		 M18.7,28.6c0.5-0.9,1.6-1.6,2.4-1.1s0.7,1.8,0.2,2.7s-1.6,1.6-2.4,1.1S18.2,29.4,18.7,28.6L18.7,28.6z"/>
	<circle id="Elipse_1" class="st0" cx="18.7" cy="39.4" r="0.4"/>
	<path id="Trazado_24" class="st0" d="M3,37.9c0.2,1.9,1.7,3.4,3.6,3.7c1.2,0.2,2.5-0.1,3.5-0.8c0.8-0.6,1.9-0.6,2.6,0
		c1,0.7,2.2,1,3.5,0.8c0.5-0.1,1-0.2,1.4-0.5c0.2-0.1,0.3-0.4,0.2-0.6c-0.1-0.2-0.4-0.3-0.6-0.2c-0.4,0.2-0.7,0.3-1.1,0.4
		c-1,0.2-2-0.1-2.8-0.7c-1.1-0.8-2.6-0.8-3.7,0c-0.8,0.6-1.8,0.8-2.8,0.7c-1.5-0.2-2.7-1.4-2.8-3c-0.3-1.5,0.5-3,1.9-3.7
		c0.6-0.3,1.1-0.8,1.4-1.4c0.8-2.3,3.3-3.5,5.6-2.7c1.3,0.4,2.3,1.4,2.7,2.7c0.3,0.6,0.8,1.1,1.4,1.4c1.3,0.6,2,1.9,1.9,3.3
		c0,0.2,0.2,0.4,0.4,0.5s0.4-0.2,0.5-0.4c0.1-1.8-0.9-3.4-2.4-4.2c-0.4-0.2-0.8-0.5-1-1c-1-2.7-4-4.1-6.7-3.1
		c-1.5,0.5-2.6,1.7-3.1,3.1c-0.2,0.4-0.6,0.8-1,1C3.7,34.2,2.7,36,3,37.9z"/>
</g>
</svg>
