<?xml version="1.0" encoding="utf-8"?>
<!-- Generator: Adobe Illustrator 24.1.3, SVG Export Plug-In . SVG Version: 6.00 Build 0)  -->
<svg version="1.1" id="Capa_1" xmlns="http://www.w3.org/2000/svg" xmlns:xlink="http://www.w3.org/1999/xlink" x="0px" y="0px"
	 viewBox="0 0 23.9 20.8" style="enable-background:new 0 0 23.9 20.8;" xml:space="preserve">
<style type="text/css">
	.st0{fill:#252828;}
</style>
<g id="paw" transform="translate(0 -0.499)">
	<path id="Trazado_1" class="st0" d="M12.8,6.1c-0.5,0-1,0.2-1.3,0.6c-0.4,0.7-0.2,1.5,0.4,2c0.7,0.4,1.5,0.2,2-0.4
		c0.4-0.6,0.3-1.3-0.2-1.8C13.5,6.2,13.1,6.1,12.8,6.1z M13.3,7.4c-0.1,0.2-0.2,0.5-0.4,0.7c-0.2,0.2-0.8,0.5-1.1,0.2s0-0.9,0.2-1.1
		s0.8-0.5,1.1-0.2C13.3,7.1,13.3,7.3,13.3,7.4z"/>
	<path id="Trazado_2" class="st0" d="M10.4,8c0.4-0.7,0.2-1.5-0.4-2C9.3,5.6,8.5,5.8,8,6.5C7.7,7,7.7,7.8,8.2,8.2
		C8.9,8.8,9.9,8.7,10.4,8z M8.6,7.2C8.7,7,8.8,6.8,9,6.6c0.2-0.2,0.8-0.5,1.1-0.2c0.2,0.2,0.1,0.7-0.2,1.1C9.6,7.7,9.1,8,8.8,7.7
		C8.6,7.6,8.6,7.4,8.6,7.2z"/>
	<path id="Trazado_3" class="st0" d="M16,8.7c-0.5-0.8-1.6-1.1-2.4-0.5s-1.1,1.6-0.5,2.4c0.5,0.8,1.6,1.1,2.4,0.5
		c0.1-0.1,0.2-0.1,0.3-0.2C16.4,10.4,16.5,9.4,16,8.7z M15.6,9.7c0,0.2-0.2,0.5-0.4,0.7c-0.2,0.2-0.8,0.5-1.1,0.2
		c-0.2-0.2-0.1-0.7,0.2-1.1S15.7,8.9,15.6,9.7z"/>
	<path id="Trazado_4" class="st0" d="M14.3,14.3c0.5,0.8,1.6,1.1,2.4,0.5s1.1-1.6,0.5-2.4c-0.5-0.8-1.6-1.1-2.4-0.5
		c-0.1,0.1-0.2,0.1-0.3,0.2C13.9,12.7,13.8,13.7,14.3,14.3z M15.1,12.7c0.2-0.2,0.8-0.5,1.1-0.2s0,0.9-0.2,1.1s-0.8,0.5-1.1,0.2
		C14.6,13.6,14.7,13.1,15.1,12.7z"/>
	<path id="Trazado_5" class="st0" d="M5.9,10.4c-0.4,1.5,0.6,2.1,1.5,2.7c0.7,0.5,1.4,1.1,1.8,1.9c0.6,1,1.4,1.9,2.7,1.5
		c1-0.2,1.7-0.9,2-1.9c0.2-0.7,0.1-1.4-0.4-1.9c-0.3-0.3-0.4-0.7-0.4-1.1c0.1-1.3-0.9-2.4-2.2-2.5c-0.1,0-0.2,0-0.3,0
		c-0.4,0-0.8-0.1-1.1-0.4C9.4,8.6,9,8.4,8.5,8.4C7.3,8.4,6.2,9.3,5.9,10.4z M8.5,9.2c0.3,0,0.5,0.1,0.7,0.2c0.4,0.4,1,0.6,1.6,0.6
		c0.9-0.1,1.7,0.6,1.7,1.5c0,0.1,0,0.2,0,0.3c0,0.6,0.2,1.2,0.6,1.6c0.2,0.3,0.3,0.8,0.2,1.2c-0.2,0.7-0.7,1.2-1.4,1.3
		c-1,0.2-1.4-0.5-1.9-1.2c-0.5-0.8-1.2-1.5-2.1-2.1c-0.9-0.6-1.4-1-1.2-1.9C6.9,9.8,7.6,9.2,8.5,9.2L8.5,9.2z"/>
	<path id="Trazado_6" class="st0" d="M20.5,14.3c0.2,0.1,0.4,0.1,0.5-0.1c1.7-2,2.7-4.5,2.9-7.1c0-1.9-0.8-3.8-2.2-5.1
		c-1.3-1.1-3-1.7-4.7-1.5c-1.9,0.2-3.7,1.1-5,2.5C10.7,1.7,9,0.8,7.2,0.6C5.6,0.3,4,0.8,2.6,1.7c-1.4,1-2.3,2.5-2.5,4.2
		C-0.2,8,0.3,10.2,1.4,12c0.9,1.6,2.1,3.1,3.4,4.3c2,1.8,4.2,3.5,6.5,4.8c0.4,0.2,0.8,0.2,1.1,0c2.8-1.6,5.4-3.5,7.6-5.8
		c0.1-0.1,0.1-0.4,0-0.5c-0.1-0.1-0.4-0.1-0.5,0c0,0,0,0,0,0c-2.2,2.3-4.7,4.2-7.4,5.7c-0.1,0.1-0.3,0.1-0.4,0l-0.2-0.1
		c2-1.9,6-5.8,6.1-6c1-0.8,1.1-2.3,0.2-3.3c-0.2-0.2-0.4-0.4-0.7-0.5c0.1-0.2,0.2-0.4,0.3-0.6c0.1-0.3,0.2-0.7,0.2-1
		c0-0.5-0.2-1-0.6-1.4c-0.5-0.5-1.1-0.7-1.8-0.5c0-0.2,0-0.4,0-0.6c-0.1-1-1-1.7-2-1.7c-0.6,0-1.1,0.2-1.6,0.5
		c-0.5-1.5-2.4-1.6-3.5-0.7c-0.1,0.1-2.6,2.6-4,4C4.2,8.7,4.3,9,4.4,9.1c0.1,0.1,0.4,0.1,0.5,0c1.2-1.2,2.5-2.5,3.7-3.7
		C9.1,4.8,10,4.6,10.7,5c0.3,0.2,0.5,0.6,0.5,1.1c0,0.2,0.2,0.3,0.4,0.3c0.1,0,0.2,0,0.3-0.1c0.6-0.8,1.6-1,2.4-0.4c0,0,0,0,0,0
		c0.4,0.5,0.5,1.1,0.2,1.7c-0.1,0.2,0,0.4,0.2,0.5c0.1,0,0.2,0,0.3,0c0.5-0.3,1.2-0.2,1.7,0.2c0.5,0.6,0.5,1.4,0,1.9
		c-0.1,0.2-0.3,0.3-0.4,0.5c-0.1,0.1-0.2,0.4,0,0.5c0.1,0.1,0.2,0.1,0.3,0.1c0.6,0,1.1,0.4,1.2,0.9c0.1,0.6,0,1.2-0.4,1.6
		c-1.2,1.4-2.5,2.5-3.8,3.7c-0.8,0.8-1.7,1.7-2.6,2.5c-2-1.2-3.9-2.6-5.6-4.2c-1.2-1.2-2.3-2.5-3.2-3.9l1.8-1.8C4,10,4,9.7,3.9,9.6
		c-0.1-0.1-0.4-0.1-0.5,0l0,0l-1.6,1.7C0.9,9.7,0.6,7.8,0.8,6c0.2-1.5,1-2.8,2.3-3.7c1.2-0.9,2.6-1.2,4.1-1c1.8,0.3,3.4,1.1,4.5,2.5
		c0.1,0.1,0.4,0.1,0.5,0c0,0,0,0,0,0c1.2-1.4,2.9-2.3,4.8-2.5c1.5-0.1,3,0.4,4.2,1.3c2.4,2.1,3.1,6.4-0.7,11.2
		C20.4,13.9,20.4,14.1,20.5,14.3L20.5,14.3z"/>
</g>
</svg>
