<svg xmlns="http://www.w3.org/2000/svg" width="105.563" height="100" viewBox="0 0 105.563 100">
  <g id="adopcion-amor" transform="translate(-0.007)">
    <g id="Grupo_314" data-name="Grupo 314">
      <g id="Grupo_310" data-name="Grupo 310">
        <path id="Trazado_207" data-name="Trazado 207" d="M74.63,22.15a14.729,14.729,0,0,0-25.16-10.4l-2.82,2.82-2.82-2.82a14.729,14.729,0,0,0-25.16,10.4c0,17.3,27.99,34.09,27.99,34.09S74.63,39.45,74.63,22.15Z" fill="#f497b0"/>
      </g>
      <g id="Grupo_311" data-name="Grupo 311">
        <path id="Trazado_208" data-name="Trazado 208" d="M41.63,53.64a2.441,2.441,0,0,1-1.24-.34c-1.19-.72-29.15-17.71-29.15-36.16A17.14,17.14,0,0,1,40.51,5.03l1.12,1.12,1.12-1.12A17.14,17.14,0,0,1,72.02,17.14c0,12.25-12.02,23.8-22.1,31.33a2.408,2.408,0,1,1-2.88-3.86C54.57,38.98,67.2,27.93,67.2,17.14a12.325,12.325,0,0,0-21.05-8.7l-2.83,2.82a2.414,2.414,0,0,1-3.41,0L37.09,8.43a12.325,12.325,0,0,0-21.05,8.7c0,15.73,26.55,31.87,26.82,32.03a2.408,2.408,0,0,1,.82,3.31A2.348,2.348,0,0,1,41.63,53.64Z"/>
      </g>
      <g id="Grupo_313" data-name="Grupo 313">
        <g id="Grupo_312" data-name="Grupo 312">
          <path id="Trazado_209" data-name="Trazado 209" d="M22.91,25.05a2.418,2.418,0,0,1-2.17-1.36,15.2,15.2,0,0,1-1.69-6.55,9.321,9.321,0,0,1,9.33-9.33,2.41,2.41,0,0,1,0,4.82,4.507,4.507,0,0,0-4.52,4.51,10.506,10.506,0,0,0,1.21,4.45,2.409,2.409,0,0,1-1.12,3.22A2.334,2.334,0,0,1,22.91,25.05Z"/>
        </g>
      </g>
    </g>
    <g id="Grupo_317" data-name="Grupo 317">
      <g id="Grupo_315" data-name="Grupo 315">
        <rect id="Rectángulo_1188" data-name="Rectángulo 1188" width="11.87" height="30.13" transform="translate(93.7 54.44)" fill="#32bfce"/>
      </g>
      <g id="Grupo_316" data-name="Grupo 316">
        <path id="Trazado_210" data-name="Trazado 210" d="M81.06,56.31a15.317,15.317,0,0,0-13.78,8.64H51.59a14.491,14.491,0,0,0-12.12,6.54l-5.72-2.87a13.689,13.689,0,0,0-14.73,1.59A13.692,13.692,0,0,0,7.28,74.98l-.05.05a2.754,2.754,0,0,0-.28.44,2.6,2.6,0,0,0,1.18,3.58l39.8,20.22a6.653,6.653,0,0,0,6.06,0L93.69,79.1V56.32Z" fill="#fff"/>
      </g>
      <path id="Trazado_211" data-name="Trazado 211" d="M101.08,74.15a2.164,2.164,0,0,0,2.16-2.16V49.95a2.164,2.164,0,0,0-2.16-2.16H89.21a2.164,2.164,0,0,0-2.16,2.16V73.3L48.54,92.86a4.575,4.575,0,0,1-4.11,0L4.63,72.64c-.11-.06-.46-.23-.2-.75A11.511,11.511,0,0,1,18.4,69.04l15.12,7.58a1.335,1.335,0,0,0,.18.07,4.883,4.883,0,0,0,2.05.46H62.79a2.16,2.16,0,0,0,0-4.32H35.77a.679.679,0,0,1-.68-.67c0-.07.02-.14.01-.1a12.327,12.327,0,0,1,12.01-9.43H62.8a2.144,2.144,0,0,0,1.94-1.22,13.231,13.231,0,0,1,11.84-7.43l4.54.01h.01a2.16,2.16,0,1,0,0-4.32l-4.55-.01A17.58,17.58,0,0,0,61.51,58.3H47.1a16.66,16.66,0,0,0-12.78,5.95L30.23,62.2a15.888,15.888,0,0,0-16.34,1.3A15.793,15.793,0,0,0,1.16,69.08a1.741,1.741,0,0,0-.12.14A5.685,5.685,0,0,0,.55,70a4.722,4.722,0,0,0,2.14,6.47l39.8,20.22a8.813,8.813,0,0,0,8,0L87.05,78.11v1.95a2.164,2.164,0,0,0,2.16,2.16h11.87a2.16,2.16,0,1,0,0-4.32H91.37V52.11h7.55V71.99A2.157,2.157,0,0,0,101.08,74.15ZM28.3,66.07,32,67.92a15.522,15.522,0,0,0-.95,2.63L20.37,65.2A11.517,11.517,0,0,1,28.3,66.07Z"/>
    </g>
  </g>
</svg>
