<svg id="charity" xmlns="http://www.w3.org/2000/svg" width="20.79" height="20.79" viewBox="0 0 20.79 20.79">
  <g id="Grupo_10" data-name="Grupo 10">
    <g id="Grupo_9" data-name="Grupo 9">
      <path id="Trazado_40" data-name="Trazado 40" d="M20.585,5.91,18.778,2.6V0h-.671V2.768L20,6.231a1.008,1.008,0,0,1,.123.482V9.306a.754.754,0,0,1-1.5.124l-.547-3.282L16.024,5.122,15.4,3.564l-.623.249L15.5,5.608l1.973.987.491,2.945a1.416,1.416,0,0,0,.818,1.059v2.479a.671.671,0,1,1-1.341,0V8.718h-.671v5.03a.671.671,0,1,1-1.341,0V11.166A3.18,3.18,0,0,0,11.4,6.418V4.7a3.007,3.007,0,0,1,.507-1.674l.834-1.251V0h-.671V1.575L11.35,2.658A3.676,3.676,0,0,0,10.73,4.7V6.909c-.021.02-.044.038-.064.058l-.271.271-.271-.271a3.176,3.176,0,0,0-4.252-.219,1.331,1.331,0,0,0-2.439.188A1.34,1.34,0,0,0,1.341,8.048V10.4A1.422,1.422,0,0,0,0,11.819v2.593a1.685,1.685,0,0,0,.2.8l1.807,3.313V20.79h.671V18.357L.793,14.894a1.008,1.008,0,0,1-.123-.482V11.819a.754.754,0,0,1,1.5-.124l.547,3.282L4.766,16l.623,1.558.623-.249-.718-1.795L3.32,14.531l-.491-2.945a1.415,1.415,0,0,0-.818-1.059V8.048a.671.671,0,1,1,1.341,0v4.359h.671V7.377a.669.669,0,0,1,1.332-.094,3.163,3.163,0,0,0,.009,3.883v1.241h.671v-.532l2.4,2.4a2.754,2.754,0,0,0,.948.619v1.522A3.007,3.007,0,0,1,8.882,18.1l-.834,1.251V20.79h.671V19.55l.722-1.083a3.676,3.676,0,0,0,.62-2.046V15.067a2.783,2.783,0,0,0,.335.022,2.745,2.745,0,0,0,1.954-.809l.563-.563a1.332,1.332,0,0,0,1.922.471,1.333,1.333,0,0,0,2.522,0,1.34,1.34,0,0,0,2.092-1.111V10.722A1.422,1.422,0,0,0,20.79,9.306V6.713A1.685,1.685,0,0,0,20.585,5.91Zm-5.831,7.168a.67.67,0,0,1-1.329.126l1.329-1.329Zm-.064-2.086-2.815,2.815a2.093,2.093,0,0,1-2.96,0L6.1,10.991a2.51,2.51,0,0,1,3.55-3.55l.745.745.745-.745a2.51,2.51,0,0,1,3.55,3.55Z" fill="#1aa3db"/>
      <path id="Trazado_41" data-name="Trazado 41" d="M145.009,178.656a1.165,1.165,0,0,1,.823-1.988V176a1.833,1.833,0,0,0-1.3,3.128L146.412,181l.472-.472Z" transform="translate(-137.961 -168.614)" fill="#1aa3db"/>
      <rect id="Rectángulo_1" data-name="Rectángulo 1" width="0.672" height="0.668" transform="translate(9.39 13.333) rotate(-135)" fill="#1aa3db"/>
      <rect id="Rectángulo_2" data-name="Rectángulo 2" width="1" height="1" transform="translate(8.031 3.047)" fill="#1aa3db"/>
      <rect id="Rectángulo_3" data-name="Rectángulo 3" width="1" height="1" transform="translate(8.031 5.066)" fill="#1aa3db"/>
      <rect id="Rectángulo_4" data-name="Rectángulo 4" width="1" height="1" transform="translate(9.035 4.062)" fill="#1aa3db"/>
      <rect id="Rectángulo_5" data-name="Rectángulo 5" height="1" transform="translate(8.03 4.062)" fill="#1aa3db"/>
      <rect id="Rectángulo_6" data-name="Rectángulo 6" width="1" height="1" transform="translate(11.043 15.105)" fill="#1aa3db"/>
      <rect id="Rectángulo_7" data-name="Rectángulo 7" width="1" transform="translate(11.043 17.123)" fill="#1aa3db"/>
      <rect id="Rectángulo_8" data-name="Rectángulo 8" width="1" height="1" transform="translate(12.047 16.109)" fill="#1aa3db"/>
      <rect id="Rectángulo_9" data-name="Rectángulo 9" width="1" height="1" transform="translate(10.039 16.109)" fill="#1aa3db"/>
      <rect id="Rectángulo_10" data-name="Rectángulo 10" transform="translate(13.048 8.076)" fill="#1aa3db"/>
      <rect id="Rectángulo_11" data-name="Rectángulo 11" height="1" transform="translate(13.048 9.082)" fill="#1aa3db"/>
      <rect id="Rectángulo_12" data-name="Rectángulo 12" width="1" height="1" transform="translate(13.051 8.078)" fill="#1aa3db"/>
      <rect id="Rectángulo_13" data-name="Rectángulo 13" width="1" height="1" transform="translate(12.047 8.078)" fill="#1aa3db"/>
    </g>
  </g>
</svg>
