<?xml version="1.0" encoding="utf-8"?>
<!-- Generator: Adobe Illustrator 24.0.2, SVG Export Plug-In . SVG Version: 6.00 Build 0)  -->
<svg version="1.1" id="logo" xmlns="http://www.w3.org/2000/svg" xmlns:xlink="http://www.w3.org/1999/xlink" x="0px" y="0px"
	 viewBox="0 0 236 73.7" style="enable-background:new 0 0 236 73.7;" xml:space="preserve">
<style type="text/css">
	.st0{fill:#FFFFFF;}
	.st1{fill:#009DCC;}
	.st2{fill:#FAC08D;}
	.st3{fill:#E69F5E;}
	.st4{fill:#C66F1D;}
	.st5{fill:#F2BDD0;}
	.st6{fill:#DD598C;}
</style>
<g id="Grupo_256">
	<rect id="Rectángulo_1174" x="21.6" y="18.9" class="st0" width="30.5" height="22"/>
	<path id="Trazado_75" d="M32.4,26c-2.1,0-3.7,1.7-3.7,3.8c0,0,0,0,0,0c0,2.6,1.9,4.1,3.8,5.8c1.4-1.8,2.6-3.8,3.6-5.9h0
		C36.1,27.6,34.5,26,32.4,26z"/>
	<path id="Trazado_76" class="st1" d="M44.8,29.7c0,3-2,4.7-3.9,6.4l-0.4,0.3l-0.4-0.5l-0.3-0.4c2-1.7,3.8-3.2,3.8-5.8
		c0-2.1-1.6-3.7-3.7-3.8c-2.1,0-3.7,1.6-3.8,3.7c0-2.1-1.7-3.7-3.8-3.7s-3.7,1.7-3.7,3.8c0,2.6,1.9,4.1,3.8,5.8l-0.3,0.4l-0.4,0.5
		l-0.4-0.3c-1.9-1.7-3.9-3.4-3.9-6.4c0-2.7,2.2-4.9,4.9-5c1.4,0,2.8,0.6,3.7,1.7c1-1.1,2.3-1.7,3.8-1.7C42.6,24.8,44.8,27,44.8,29.7
		z"/>
	<path id="Trazado_77" class="st2" d="M36.2,22.7C36.2,22.8,36.2,22.8,36.2,22.7C36.2,22.7,36.2,22.7,36.2,22.7
		c0.3-5,4.5-8.9,9.5-8.9c0.1,0,0.3,0,0.4,0c-4-4-7.4-8.7-9.8-13.8c-2.5,5.1-5.8,9.8-9.8,13.8c0.1,0,0.2,0,0.4,0
		C31.7,13.8,35.9,17.7,36.2,22.7z"/>
	<path id="Trazado_78" class="st2" d="M29,39.5c-5.6-5.1-11.7-8.9-11.7-16.2c0-0.4,0-0.8,0.1-1.2C8.3,29.9,0,36.8,0,48.6
		c0,8,5.3,15.1,13,17.3c-0.5-1.3-0.8-2.7-0.8-4.2C12.3,51.7,21.5,47,29,39.5z"/>
	<path id="Trazado_79" class="st2" d="M72.3,48.6c0-11.8-8.3-18.8-17.3-26.5c0,0.4,0.1,0.8,0.1,1.2c0,7.4-6.1,11.1-11.8,16.2
		C50.9,47,60,51.7,60,61.8c0,1.4-0.3,2.8-0.8,4.2C67,63.7,72.3,56.6,72.3,48.6z"/>
	<path id="Trazado_80" class="st3" d="M29,39.5c0.3-0.3,0.5-0.5,0.8-0.8c-0.4-0.4-0.9-0.8-1.3-1.2c-1.6-1.3-3.1-2.8-4.4-4.4
		c-1.3-1.7-2.1-3.9-2.1-6c0-4.3,3.4-7.8,7.7-7.8c2.6,0,5,1.3,6.4,3.5c-0.3-5-4.4-8.9-9.4-8.9c-0.1,0-0.3,0-0.4,0
		c-4.6,0.2-8.4,3.7-9,8.3c0,0.4-0.1,0.8-0.1,1.2C17.3,30.6,23.4,34.3,29,39.5z"/>
	<path id="Trazado_81" class="st3" d="M36.2,22.7c1.4-2.1,3.8-3.4,6.4-3.4c4.3,0,7.7,3.5,7.7,7.8c0,2.2-0.7,4.3-2.1,6
		c-1.3,1.6-2.8,3.1-4.4,4.4c-0.4,0.4-0.9,0.8-1.3,1.2c0.3,0.3,0.5,0.5,0.8,0.8c5.6-5.2,11.8-8.9,11.8-16.2c0-0.4,0-0.8-0.1-1.2
		c-0.6-4.6-4.4-8.1-9-8.3c-0.1,0-0.3,0-0.4,0C40.6,13.8,36.5,17.7,36.2,22.7z"/>
	<path id="Trazado_82" class="st0" d="M27.5,29.7c0-2.7,2.2-4.9,4.9-5c1.4,0,2.8,0.6,3.7,1.7c-0.3-3.5-3.4-6.1-6.9-5.8
		c-3.4,0.3-5.9,3.1-5.9,6.5c0,4.8,3.7,7.4,7.4,10.6c0.4-0.4,0.8-0.9,1.1-1.3c-0.1-0.1-0.3-0.2-0.4-0.3
		C29.5,34.4,27.5,32.7,27.5,29.7z"/>
	<path id="Trazado_83" class="st0" d="M49,27.1c0.1-3.5-2.8-6.5-6.3-6.5c-3.4,0-6.2,2.5-6.5,5.9c0.9-1.1,2.3-1.7,3.7-1.7
		c2.7,0,4.9,2.2,4.9,4.9c0,0,0,0,0,0c0,3-2,4.7-3.9,6.4c-0.1,0.1-0.3,0.2-0.4,0.3c0.4,0.4,0.8,0.9,1.1,1.3
		C45.3,34.5,49,31.9,49,27.1z"/>
	<path id="Trazado_84" d="M48.2,33.2c1.3-1.7,2.1-3.9,2.1-6c0-4.3-3.4-7.8-7.7-7.8c-2.6,0-5,1.3-6.4,3.4c0,0,0,0,0,0c0,0,0,0,0,0
		c-2.4-3.5-7.1-4.5-10.7-2.2C23.3,22,22,24.5,22,27.1c0,2.2,0.7,4.3,2.1,6c1.3,1.6,2.8,3.1,4.4,4.4c0.4,0.4,0.9,0.8,1.3,1.2
		c0.1-0.2,0.3-0.3,0.5-0.5c-0.4-0.4-0.9-0.8-1.3-1.2c-3.2-2.8-6.2-5.5-6.2-9.9c0-3.9,3.1-7.1,7.1-7.2c0.2,0,0.4,0,0.5,0
		c0.2,0,0.4,0,0.5,0.1c0.1,0,0.2,0,0.3,0c2.3,0.4,4.2,1.9,5.1,4c1.1-2.5,3.6-4.1,6.4-4.1c3.9,0,7.1,3.2,7.1,7.2c0,4.5-3,7.1-6.2,9.9
		c-0.4,0.4-0.9,0.8-1.3,1.2c0.2,0.2,0.3,0.3,0.5,0.5c0.4-0.4,0.9-0.8,1.3-1.2C45.5,36.2,46.9,34.8,48.2,33.2z"/>
	<path id="Trazado_85" d="M43.6,29.7c0-2.1-1.6-3.7-3.7-3.7s-3.7,1.6-3.7,3.7l0,0c1,2.1,2.2,4,3.6,5.8
		C41.7,33.8,43.6,32.3,43.6,29.7z"/>
	<path id="Trazado_86" class="st4" d="M43.3,39.5c-0.3-0.3-0.5-0.5-0.8-0.8c-0.2-0.2-0.3-0.3-0.5-0.5l-0.5-0.5
		c-0.4-0.4-0.8-0.9-1.1-1.3l-0.4-0.5c-0.1-0.1-0.2-0.3-0.3-0.4c-1.4-1.8-2.6-3.8-3.6-5.8v0h0c-1,2.1-2.2,4-3.6,5.9
		c-0.1,0.1-0.2,0.3-0.3,0.4c-0.1,0.2-0.3,0.3-0.4,0.5c-0.4,0.5-0.8,0.9-1.1,1.3c-0.1,0.2-0.3,0.3-0.5,0.5s-0.3,0.3-0.5,0.5
		c-0.3,0.3-0.5,0.5-0.8,0.8C21.5,47,12.3,51.7,12.3,61.8c0,1.4,0.2,2.8,0.8,4.1c2.3,6.2,9.2,9.3,15.4,7c4.5-1.7,7.6-6,7.7-10.8
		c-2.1-4.6-7.6-5.8-7.6-10.2c0-2.1,1.7-3.8,3.8-3.8s3.8,1.7,3.8,3.8c0-2.1,1.7-3.8,3.8-3.8c2.1,0,3.8,1.7,3.8,3.8
		c0,4.4-5.5,5.6-7.6,10.2c0.2,6.6,5.7,11.8,12.2,11.6c6.5-0.2,11.6-5.5,11.6-11.9C60,51.7,50.9,47,43.3,39.5z M19.5,67.8
		c-0.4-0.8-1.3-1-1.3-1.7c0-0.4,0.3-0.7,0.6-0.7c0.4,0,0.7,0.3,0.7,0.6c0,0,0,0,0,0c0-0.4,0.3-0.7,0.6-0.7c0.4,0,0.7,0.3,0.7,0.6
		c0,0,0,0,0,0C20.8,66.8,19.9,67,19.5,67.8z M21.5,71.7c-0.4-0.8-1.3-1-1.3-1.8c0-0.4,0.3-0.7,0.6-0.7c0.4,0,0.7,0.3,0.7,0.6
		c0,0,0,0,0,0c0-0.4,0.3-0.7,0.6-0.7c0.4,0,0.7,0.3,0.7,0.6c0,0,0,0,0,0C22.8,70.7,21.8,70.9,21.5,71.7z M23.9,67.8
		c-0.4-0.8-1.3-1-1.3-1.7c0-0.4,0.3-0.7,0.6-0.7c0.4,0,0.7,0.3,0.7,0.6c0,0,0,0,0,0c0-0.4,0.3-0.7,0.6-0.7c0.4,0,0.7,0.3,0.7,0.6
		c0,0,0,0,0,0C25.2,66.8,24.3,67,23.9,67.8z M26.3,71.7c-0.4-0.8-1.3-1-1.3-1.8c0-0.4,0.3-0.7,0.6-0.7c0.4,0,0.7,0.3,0.7,0.6
		c0,0,0,0,0,0c0-0.4,0.3-0.7,0.6-0.7c0.4,0,0.7,0.3,0.7,0.6c0,0,0,0,0,0C27.6,70.7,26.6,70.9,26.3,71.7z M28.3,67.8
		c-0.4-0.8-1.3-1-1.3-1.7c0-0.4,0.3-0.7,0.6-0.7c0.4,0,0.7,0.3,0.7,0.6c0,0,0,0,0,0c0-0.4,0.3-0.7,0.6-0.7c0.4,0,0.7,0.3,0.7,0.6
		c0,0,0,0,0,0C29.6,66.8,28.6,67,28.3,67.8z M44.1,67.8c-0.4-0.8-1.3-1-1.3-1.7c0-0.4,0.3-0.6,0.7-0.6c0.4,0,0.6,0.3,0.6,0.6
		c0-0.4,0.3-0.6,0.7-0.6c0.4,0,0.6,0.3,0.6,0.6C45.5,66.8,44.5,67,44.1,67.8z M46.1,71.7c-0.4-0.8-1.3-1-1.3-1.8
		c0-0.4,0.3-0.6,0.7-0.6c0.4,0,0.6,0.3,0.6,0.6c0-0.4,0.3-0.7,0.6-0.7c0.4,0,0.7,0.3,0.7,0.6c0,0,0,0,0,0
		C47.4,70.7,46.5,70.9,46.1,71.7z M48.5,67.8c-0.4-0.8-1.3-1-1.3-1.7c0-0.4,0.3-0.7,0.6-0.7c0.4,0,0.7,0.3,0.7,0.6c0,0,0,0,0,0
		c0-0.4,0.3-0.6,0.7-0.6c0.4,0,0.6,0.3,0.6,0.6C49.8,66.8,48.9,67,48.5,67.8z M50.9,71.7c-0.4-0.8-1.3-1-1.3-1.8
		c0-0.4,0.3-0.6,0.7-0.6c0.4,0,0.6,0.3,0.6,0.6c0-0.4,0.3-0.6,0.7-0.6c0.4,0,0.6,0.3,0.6,0.6C52.2,70.7,51.2,70.9,50.9,71.7z
		 M52.9,67.8c-0.4-0.8-1.3-1-1.3-1.7c0-0.4,0.3-0.6,0.7-0.6c0.4,0,0.6,0.3,0.6,0.6c0-0.4,0.3-0.7,0.6-0.7c0.4,0,0.7,0.3,0.7,0.6
		c0,0,0,0,0,0C54.2,66.8,53.2,67,52.9,67.8z"/>
	<path id="Trazado_87" class="st5" d="M43.8,51.9c0-2.1-1.7-3.8-3.8-3.8c-2.1,0-3.8,1.7-3.8,3.8c0-2.1-1.7-3.8-3.8-3.8
		s-3.8,1.7-3.8,3.8c0,4.4,5.5,5.6,7.6,10.2v0l0,0C38.3,57.4,43.8,56.3,43.8,51.9z"/>
	<path id="Trazado_88" d="M46.7,69.3c-0.4,0-0.6,0.3-0.7,0.6c0,0,0,0,0,0c0-0.4-0.3-0.6-0.7-0.6c-0.4,0-0.6,0.3-0.6,0.6
		c0,0.8,0.9,0.9,1.3,1.8c0.4-0.8,1.3-1,1.3-1.8C47.4,69.6,47.1,69.3,46.7,69.3C46.7,69.3,46.7,69.3,46.7,69.3z"/>
	<path id="Trazado_89" d="M45.5,66.1c0-0.4-0.3-0.6-0.7-0.6c-0.4,0-0.6,0.3-0.6,0.6c0-0.4-0.3-0.7-0.6-0.7c-0.4,0-0.7,0.3-0.7,0.6
		c0,0,0,0,0,0c0,0.8,0.9,0.9,1.3,1.7C44.5,67,45.5,66.8,45.5,66.1z"/>
	<path id="Trazado_90" d="M49.8,66.1c0-0.4-0.3-0.7-0.6-0.7c-0.4,0-0.7,0.3-0.7,0.6c0,0,0,0,0,0c0-0.4-0.3-0.6-0.7-0.6
		c-0.4,0-0.6,0.3-0.6,0.6c0,0.8,0.9,0.9,1.3,1.7C48.9,67,49.8,66.8,49.8,66.1z"/>
	<path id="Trazado_91" d="M54.2,66.1c0-0.4-0.3-0.6-0.7-0.6c-0.4,0-0.6,0.3-0.6,0.6c0-0.4-0.3-0.7-0.6-0.7c-0.4,0-0.7,0.3-0.7,0.6
		c0,0,0,0,0,0c0,0.8,0.9,0.9,1.3,1.7C53.2,67,54.2,66.8,54.2,66.1z"/>
	<path id="Trazado_92" d="M51.5,69.3c-0.4,0-0.6,0.3-0.7,0.6c0,0,0,0,0,0c0-0.4-0.3-0.7-0.6-0.7c-0.4,0-0.7,0.3-0.7,0.6c0,0,0,0,0,0
		c0,0.8,0.9,0.9,1.3,1.8c0.4-0.8,1.3-1,1.3-1.8C52.2,69.6,51.9,69.3,51.5,69.3z"/>
	<path id="Trazado_93" d="M22.1,69.3c-0.4,0-0.6,0.3-0.6,0.6c0,0,0,0,0,0c0-0.4-0.3-0.7-0.6-0.7c-0.4,0-0.7,0.3-0.7,0.6c0,0,0,0,0,0
		c0,0.8,0.9,0.9,1.3,1.8c0.4-0.8,1.3-1,1.3-1.8C22.8,69.6,22.5,69.3,22.1,69.3z"/>
	<path id="Trazado_94" d="M20.8,66.1c0-0.4-0.3-0.7-0.6-0.7c-0.4,0-0.7,0.3-0.7,0.6c0,0,0,0,0,0c0-0.4-0.3-0.7-0.6-0.7
		c-0.4,0-0.7,0.3-0.7,0.6c0,0,0,0,0,0c0,0.8,0.9,0.9,1.3,1.7C19.9,67,20.8,66.8,20.8,66.1z"/>
	<path id="Trazado_95" d="M24.5,65.4c-0.4,0-0.6,0.3-0.6,0.6c0,0,0,0,0,0c0-0.4-0.3-0.7-0.6-0.7c-0.4,0-0.7,0.3-0.7,0.6c0,0,0,0,0,0
		c0,0.8,0.9,0.9,1.3,1.7c0.4-0.8,1.3-1,1.3-1.7C25.2,65.7,24.9,65.4,24.5,65.4C24.5,65.4,24.5,65.4,24.5,65.4z"/>
	<path id="Trazado_96" d="M28.9,65.4c-0.4,0-0.6,0.3-0.6,0.6c0,0,0,0,0,0c0-0.4-0.3-0.7-0.6-0.7c-0.4,0-0.7,0.3-0.7,0.6c0,0,0,0,0,0
		c0,0.8,0.9,0.9,1.3,1.7c0.4-0.8,1.3-1,1.3-1.7C29.6,65.7,29.3,65.4,28.9,65.4z"/>
	<path id="Trazado_97" d="M26.9,69.3c-0.4,0-0.6,0.3-0.6,0.6c0,0,0,0,0,0c0-0.4-0.3-0.7-0.6-0.7c-0.4,0-0.7,0.3-0.7,0.6c0,0,0,0,0,0
		c0,0.8,0.9,0.9,1.3,1.8c0.4-0.8,1.3-1,1.3-1.8C27.6,69.6,27.3,69.3,26.9,69.3C26.9,69.3,26.9,69.3,26.9,69.3z"/>
</g>
<g id="Grupo_258">
	<path id="Trazado_98" class="st1" d="M81.2,63c2.8,1.5,5.9,2.3,9,2.3c3.7,0,5.7-1.6,5.7-4c0-2.3-1.7-3.6-6-5.2
		c-6-2.2-9.9-5.6-9.9-11C80,38.7,85.1,34,93.6,34c3.2-0.1,6.3,0.5,9.2,1.9l-1.8,6.7c-2.3-1.2-4.9-1.8-7.5-1.8
		c-3.5,0-5.3,1.7-5.3,3.6c0,2.4,2,3.4,6.7,5.2c6.3,2.4,9.3,5.8,9.3,11.1c0,6.2-4.6,11.5-14.5,11.5c-3.5,0-7-0.8-10.2-2.3L81.2,63z"
		/>
	<path id="Trazado_99" class="st1" d="M115.1,41.6h-9.7v-7.1h27.7v7.1h-9.8v30.3h-8.1V41.6z"/>
	<path id="Trazado_100" class="st6" d="M142.9,34.5v21.3c0,6.5,2.4,9.7,6.5,9.7c4.3,0,6.6-3.1,6.6-9.7V34.5h8.1v20.8
		c0,11.5-5.6,16.9-15,16.9c-9.1,0-14.4-5.2-14.4-17V34.5H142.9z"/>
	<path id="Trazado_101" class="st1" d="M167.4,34.5h8.1V51h0.1c0.8-1.4,1.7-2.8,2.5-4.1l8.1-12.4h10.1l-11.9,15.9l12.5,21.5h-9.4
		l-8.9-16.2l-3,3.9v12.2h-8.1L167.4,34.5L167.4,34.5z"/>
	<path id="Trazado_102" class="st1" d="M209.2,62.3l-2.6,9.6h-8.4l11-37.4h10.7l11.2,37.4h-8.8l-2.8-9.6H209.2z M218.4,56l-2.3-7.9
		c-0.6-2.2-1.3-5-1.8-7.2h-0.1c-0.6,2.2-1.1,5.1-1.6,7.2l-2.1,7.9H218.4z"/>
	<g id="Grupo_257">
		<path id="Trazado_103" class="st6" d="M79.6,6.9h10.7v1.4h-9.1V18h8.4v1.4h-8.4V31h-1.6V6.9z"/>
		<path id="Trazado_104" class="st6" d="M95.6,6.9V22c0,5.8,2.5,7.9,5.6,7.9c3.5,0,5.9-2.4,5.9-7.9V6.9h1.6v15
			c0,7.1-3.5,9.6-7.5,9.6c-3.7,0-7.1-2.2-7.1-9.2V6.9H95.6z"/>
		<path id="Trazado_105" class="st6" d="M113.6,31V6.8h1.6l7.9,13.7c1.5,2.6,2.9,5.3,4.1,8.1l0.1,0c-0.3-3.7-0.3-6.3-0.3-10.2V6.8
			h1.6V31h-1.6l-7.9-13.8c-1.5-2.6-2.9-5.3-4.1-8.1l-0.1,0c0.2,3.2,0.3,5.8,0.3,10.2V31H113.6z"/>
		<path id="Trazado_106" class="st6" d="M133.6,7.2c1.7-0.3,3.4-0.5,5.1-0.5c3-0.2,6,0.8,8.2,2.8c2.2,2.4,3.3,5.6,3.1,8.8
			c0.2,3.4-0.8,6.8-3,9.5c-2.3,2.4-5.6,3.7-9,3.4c-1.5,0-3,0-4.4-0.2C133.6,31,133.6,7.2,133.6,7.2z M135.3,29.6c1,0.1,2,0.2,3,0.1
			c6.4,0,10.1-3.7,10.1-11.4c0.1-6.3-3-10.3-9.6-10.3c-1.2,0-2.3,0.1-3.5,0.3L135.3,29.6L135.3,29.6z"/>
		<path id="Trazado_107" class="st6" d="M155.7,22.6l-2.6,8.4h-1.6l7.7-24.2h1.6l7.7,24.2h-1.6l-2.7-8.4H155.7z M163.6,21.2
			l-2.5-7.7c-0.5-1.7-0.9-3.1-1.2-4.6h-0.1c-0.3,1.5-0.7,3.1-1.2,4.6l-2.5,7.8C156.2,21.2,163.6,21.2,163.6,21.2z"/>
		<path id="Trazado_108" class="st6" d="M185.4,30.3c-1.7,0.8-3.6,1.2-5.5,1.1c-5.1,0-10.1-3.5-10.1-12.2c0-8,4.5-12.6,10.7-12.6
			c1.6-0.1,3.2,0.2,4.7,0.9l-0.5,1.4C183.4,8.3,182,8,180.5,8c-5.3,0-9,3.8-9,11.1c0,7.2,3.5,10.8,8.8,10.8c1.6,0,3.1-0.3,4.6-1
			L185.4,30.3z"/>
		<rect id="Rectángulo_1175" x="188.7" y="6.9" class="st6" width="1.6" height="24.2"/>
		<path id="Trazado_109" class="st6" d="M212.4,18.8c0,8.7-4.5,12.6-9.4,12.6c-5,0-9.1-4.3-9.1-12.3c0-8.2,4.2-12.6,9.4-12.6
			C208.5,6.5,212.4,10.8,212.4,18.8z M195.7,19.1c0,5.2,2.5,10.9,7.5,10.9s7.5-5.5,7.5-11.1c0-5-2.2-10.9-7.5-10.9
			S195.7,13.7,195.7,19.1z M207.7,1.5l-4.6,4h-1.5l3.5-4H207.7z"/>
		<path id="Trazado_110" class="st6" d="M216,31V6.8h1.6l7.9,13.7c1.5,2.6,2.9,5.3,4.1,8.1l0.1,0c-0.2-3.7-0.3-6.3-0.3-10.2V6.8h1.6
			V31h-1.6l-7.9-13.8c-1.5-2.6-2.9-5.3-4.1-8.1l-0.1,0c0.2,3.2,0.3,5.8,0.3,10.2V31H216z"/>
	</g>
</g>
</svg>
