<svg id="logo" xmlns="http://www.w3.org/2000/svg" width="72.33" height="101.93" viewBox="0 0 72.33 101.93">
  <g id="Grupo_256" data-name="Grupo 256">
    <rect id="Rect치ngulo_1174" data-name="Rect치ngulo 1174" width="30.54" height="21.95" transform="translate(21.6 18.85)" fill="#fff"/>
    <path id="Trazado_75" data-name="Trazado 75" d="M32.44,25.95a3.737,3.737,0,0,0-3.72,3.77c0,2.59,1.87,4.06,3.84,5.79a29.475,29.475,0,0,0,3.6-5.85h.01A3.758,3.758,0,0,0,32.44,25.95Z"/>
    <path id="Trazado_76" data-name="Trazado 76" d="M44.78,29.73c0,2.97-1.98,4.7-3.89,6.36l-.39.35-.42-.51-.32-.41c1.97-1.73,3.84-3.2,3.84-5.79a3.72,3.72,0,1,0-7.44-.06,3.72,3.72,0,1,0-7.44.06c0,2.59,1.88,4.06,3.84,5.79l-.33.41-.42.5-.39-.34c-1.91-1.67-3.88-3.4-3.88-6.36a4.932,4.932,0,0,1,4.9-4.95,4.863,4.863,0,0,1,3.69,1.69,5.088,5.088,0,0,1,3.75-1.69A4.932,4.932,0,0,1,44.78,29.73Z" fill="#009dcc"/>
    <path id="Trazado_77" data-name="Trazado 77" d="M36.15,22.74c0,.01.01.01,0,0q.015,0,.03-.03a9.419,9.419,0,0,1,9.43-8.89c.12,0,.25,0,.37.01A49.4,49.4,0,0,1,36.17,0a49.628,49.628,0,0,1-9.82,13.83c.12-.01.24-.01.37-.01A9.424,9.424,0,0,1,36.15,22.74Z" fill="#fac08d"/>
    <path id="Trazado_78" data-name="Trazado 78" d="M29.01,39.46c-5.63-5.14-11.74-8.88-11.74-16.22a11.115,11.115,0,0,1,.07-1.16C8.29,29.85,0,36.79,0,48.61A18.025,18.025,0,0,0,13.02,65.92a11.9,11.9,0,0,1-.75-4.16C12.27,51.66,21.45,46.95,29.01,39.46Z" fill="#fac08d"/>
    <path id="Trazado_79" data-name="Trazado 79" d="M72.33,48.61c0-11.81-8.29-18.76-17.34-26.53a8.922,8.922,0,0,1,.07,1.16c0,7.35-6.12,11.08-11.75,16.23,7.55,7.49,16.72,12.19,16.72,22.29a11.813,11.813,0,0,1-.75,4.17A18.031,18.031,0,0,0,72.33,48.61Z" fill="#fac08d"/>
    <path id="Trazado_80" data-name="Trazado 80" d="M29.01,39.46c.25-.25.51-.51.76-.77-.43-.39-.87-.77-1.3-1.15a29.29,29.29,0,0,1-4.38-4.39,9.833,9.833,0,0,1-2.08-6.04,7.778,7.778,0,0,1,7.73-7.81,7.7,7.7,0,0,1,6.41,3.45,9.433,9.433,0,0,0-9.44-8.92c-.13,0-.25,0-.37.01a9.435,9.435,0,0,0-9.01,8.25,11.114,11.114,0,0,0-.07,1.16C17.26,30.58,23.37,34.32,29.01,39.46Z" fill="#e69f5e"/>
    <path id="Trazado_81" data-name="Trazado 81" d="M36.18,22.72a7.7,7.7,0,0,1,6.39-3.43,7.787,7.787,0,0,1,7.73,7.82,9.833,9.833,0,0,1-2.08,6.04,28.83,28.83,0,0,1-4.38,4.39c-.43.38-.87.76-1.3,1.15.26.27.51.53.77.78,5.63-5.15,11.75-8.89,11.75-16.23a8.922,8.922,0,0,0-.07-1.16,9.435,9.435,0,0,0-9.01-8.25c-.12-.01-.25-.01-.37-.01A9.442,9.442,0,0,0,36.18,22.72Z" fill="#e69f5e"/>
    <path id="Trazado_82" data-name="Trazado 82" d="M27.54,29.73a4.932,4.932,0,0,1,4.9-4.95,4.863,4.863,0,0,1,3.69,1.69,6.417,6.417,0,0,0-12.81.64c0,4.79,3.71,7.36,7.35,10.63.39-.42.77-.86,1.14-1.31-.13-.11-.26-.22-.39-.34C29.51,34.42,27.54,32.69,27.54,29.73Z" fill="#fff"/>
    <path id="Trazado_83" data-name="Trazado 83" d="M49,27.11a6.417,6.417,0,0,0-12.81-.64,4.857,4.857,0,0,1,3.68-1.69,4.925,4.925,0,0,1,4.9,4.95c0,2.97-1.98,4.7-3.89,6.36-.13.12-.26.23-.39.35.37.44.75.88,1.14,1.3C45.28,34.47,49,31.9,49,27.11Z" fill="#fff"/>
    <path id="Trazado_84" data-name="Trazado 84" d="M48.23,33.15a9.833,9.833,0,0,0,2.08-6.04,7.787,7.787,0,0,0-7.73-7.82,7.685,7.685,0,0,0-6.39,3.43c-.01.01-.01.03-.02.04a.01.01,0,0,1-.01-.01,7.713,7.713,0,0,0-14.14,4.37,9.833,9.833,0,0,0,2.08,6.04,28.83,28.83,0,0,0,4.38,4.39c.43.38.87.76,1.3,1.15.15-.15.3-.31.45-.47-.44-.4-.88-.78-1.32-1.17-3.2-2.8-6.23-5.45-6.23-9.94a7.123,7.123,0,0,1,7.08-7.16,4.7,4.7,0,0,1,.53.02c.17.01.35.04.52.06.09.01.17.03.26.04a7.141,7.141,0,0,1,5.12,4.03,7.058,7.058,0,0,1,6.41-4.15,7.13,7.13,0,0,1,7.08,7.16c0,4.5-3.03,7.14-6.24,9.94-.44.38-.88.77-1.33,1.17.15.16.3.32.45.47.43-.39.87-.78,1.3-1.15A29.74,29.74,0,0,0,48.23,33.15Z"/>
    <path id="Trazado_85" data-name="Trazado 85" d="M43.6,29.73a3.72,3.72,0,1,0-7.44-.05,29.686,29.686,0,0,0,3.6,5.84C41.73,33.79,43.6,32.32,43.6,29.73Z"/>
    <path id="Trazado_86" data-name="Trazado 86" d="M43.32,39.47c-.26-.25-.52-.51-.77-.78-.15-.16-.3-.31-.45-.47l-.45-.48c-.39-.43-.77-.86-1.14-1.3l-.42-.51c-.11-.14-.22-.28-.32-.41a29.686,29.686,0,0,1-3.6-5.84v-.01h-.01a30.062,30.062,0,0,1-3.6,5.85c-.11.14-.22.28-.33.41-.14.17-.27.34-.42.5-.37.45-.75.88-1.14,1.31-.15.16-.29.32-.45.48s-.3.32-.45.47c-.25.26-.51.52-.76.77-7.56,7.49-16.74,12.2-16.74,22.3a11.623,11.623,0,0,0,.75,4.15,11.955,11.955,0,0,0,23.14-3.84c-2.14-4.63-7.6-5.81-7.6-10.21a3.8,3.8,0,0,1,7.6,0,3.8,3.8,0,0,1,7.6,0c0,4.4-5.45,5.58-7.59,10.21a11.942,11.942,0,0,0,23.88-.32C60.04,51.66,50.87,46.96,43.32,39.47ZM19.55,67.83c-.36-.79-1.3-.99-1.3-1.74a.65.65,0,1,1,1.3,0,.65.65,0,1,1,1.3,0C20.84,66.84,19.91,67.04,19.55,67.83Zm1.92,3.82c-.37-.79-1.3-1-1.3-1.75a.65.65,0,1,1,1.3,0,.65.65,0,1,1,1.3,0C22.77,70.65,21.84,70.86,21.47,71.65Zm2.42-3.82c-.36-.79-1.3-.99-1.3-1.74a.65.65,0,1,1,1.3,0,.65.65,0,1,1,1.3,0C25.19,66.84,24.26,67.04,23.89,67.83Zm2.37,3.82c-.36-.79-1.3-1-1.3-1.75a.65.65,0,1,1,1.3,0,.65.65,0,1,1,1.3,0C27.56,70.65,26.62,70.86,26.26,71.65Zm2-3.82c-.37-.79-1.3-.99-1.3-1.74a.65.65,0,1,1,1.3,0,.65.65,0,1,1,1.3,0C29.56,66.84,28.62,67.04,28.26,67.83Zm15.89,0c-.37-.79-1.3-.99-1.3-1.74a.65.65,0,0,1,1.3,0,.65.65,0,0,1,1.3,0C45.45,66.84,44.52,67.04,44.15,67.83Zm1.93,3.82c-.36-.79-1.3-1-1.3-1.75a.65.65,0,0,1,1.3,0,.65.65,0,1,1,1.3,0C47.38,70.65,46.45,70.86,46.08,71.65Zm2.42-3.82c-.36-.79-1.3-.99-1.3-1.74a.65.65,0,1,1,1.3,0,.65.65,0,0,1,1.3,0C49.8,66.84,48.87,67.04,48.5,67.83Zm2.37,3.82c-.36-.79-1.3-1-1.3-1.75a.65.65,0,0,1,1.3,0,.65.65,0,0,1,1.3,0C52.17,70.65,51.23,70.86,50.87,71.65Zm1.99-3.82c-.37-.79-1.3-.99-1.3-1.74a.65.65,0,0,1,1.3,0,.65.65,0,1,1,1.3,0C54.17,66.84,53.23,67.04,52.86,67.83Z" fill="#c66f1d"/>
    <path id="Trazado_87" data-name="Trazado 87" d="M43.75,51.86a3.8,3.8,0,0,0-7.6,0,3.8,3.8,0,0,0-7.6,0c0,4.4,5.46,5.58,7.6,10.21v.01l.01-.01C38.3,57.44,43.75,56.26,43.75,51.86Z" fill="#f2bdd0"/>
    <path id="Trazado_88" data-name="Trazado 88" d="M46.73,69.26a.649.649,0,0,0-.65.65.65.65,0,0,0-1.3,0c0,.75.93.95,1.3,1.75.37-.79,1.3-1,1.3-1.75A.649.649,0,0,0,46.73,69.26Z"/>
    <path id="Trazado_89" data-name="Trazado 89" d="M45.45,66.09a.65.65,0,0,0-1.3,0,.65.65,0,1,0-1.3,0c0,.75.94.95,1.3,1.74C44.52,67.04,45.45,66.84,45.45,66.09Z"/>
    <path id="Trazado_90" data-name="Trazado 90" d="M49.8,66.09a.65.65,0,1,0-1.3,0,.65.65,0,0,0-1.3,0c0,.75.93.95,1.3,1.74C48.87,67.04,49.8,66.84,49.8,66.09Z"/>
    <path id="Trazado_91" data-name="Trazado 91" d="M54.17,66.09a.65.65,0,0,0-1.3,0,.65.65,0,1,0-1.3,0c0,.75.94.95,1.3,1.74C53.23,67.04,54.17,66.84,54.17,66.09Z"/>
    <path id="Trazado_92" data-name="Trazado 92" d="M51.52,69.26a.649.649,0,0,0-.65.65.65.65,0,1,0-1.3,0c0,.75.93.95,1.3,1.75.37-.79,1.3-1,1.3-1.75A.655.655,0,0,0,51.52,69.26Z"/>
    <path id="Trazado_93" data-name="Trazado 93" d="M22.13,69.26a.649.649,0,0,0-.65.65.65.65,0,1,0-1.3,0c0,.75.93.95,1.3,1.75.36-.79,1.3-1,1.3-1.75A.662.662,0,0,0,22.13,69.26Z"/>
    <path id="Trazado_94" data-name="Trazado 94" d="M20.84,66.09a.65.65,0,1,0-1.3,0,.65.65,0,1,0-1.3,0c0,.75.94.95,1.3,1.74C19.91,67.04,20.84,66.84,20.84,66.09Z"/>
    <path id="Trazado_95" data-name="Trazado 95" d="M24.54,65.44a.649.649,0,0,0-.65.65.65.65,0,1,0-1.3,0c0,.75.93.95,1.3,1.74.37-.79,1.3-.99,1.3-1.74A.649.649,0,0,0,24.54,65.44Z"/>
    <path id="Trazado_96" data-name="Trazado 96" d="M28.91,65.44a.649.649,0,0,0-.65.65.65.65,0,1,0-1.3,0c0,.75.93.95,1.3,1.74.36-.79,1.3-.99,1.3-1.74A.655.655,0,0,0,28.91,65.44Z"/>
    <path id="Trazado_97" data-name="Trazado 97" d="M26.91,69.26a.649.649,0,0,0-.65.65.65.65,0,1,0-1.3,0c0,.75.93.95,1.3,1.75.37-.79,1.3-1,1.3-1.75A.649.649,0,0,0,26.91,69.26Z"/>
  </g>
  <g id="Grupo_258" data-name="Grupo 258">
    <path id="Trazado_98" data-name="Trazado 98" d="M9.55,98.62a7.134,7.134,0,0,0,3.23.83c1.34,0,2.05-.57,2.05-1.44,0-.83-.61-1.3-2.16-1.85-2.14-.79-3.56-2.01-3.56-3.94,0-2.27,1.86-3.98,4.88-3.98a7.27,7.27,0,0,1,3.29.67l-.65,2.4a5.871,5.871,0,0,0-2.68-.63c-1.26,0-1.88.61-1.88,1.28,0,.85.71,1.22,2.39,1.87,2.27.87,3.33,2.09,3.33,3.96,0,2.23-1.64,4.12-5.18,4.12a8.308,8.308,0,0,1-3.66-.83Z" fill="#009dcc"/>
    <path id="Trazado_99" data-name="Trazado 99" d="M21.71,90.97H18.23V88.43h9.91v2.54H24.62v10.86H21.71Z" fill="#009dcc"/>
    <path id="Trazado_100" data-name="Trazado 100" d="M31.63,88.43v7.63c0,2.31.86,3.47,2.33,3.47,1.53,0,2.37-1.11,2.37-3.47V88.43h2.91v7.45c0,4.1-2.01,6.05-5.37,6.05-3.25,0-5.15-1.87-5.15-6.09V88.43h2.91Z" fill="#dd598c"/>
    <path id="Trazado_101" data-name="Trazado 101" d="M40.43,88.43h2.89v5.92h.04c.29-.51.6-.99.9-1.47l2.91-4.45h3.6l-4.26,5.7,4.47,7.69H47.6l-3.18-5.79-1.09,1.41v4.37H40.44V88.43Z" fill="#009dcc"/>
    <path id="Trazado_102" data-name="Trazado 102" d="M55.39,98.39l-.92,3.44h-3l3.92-13.4h3.83l4.02,13.4H60.08l-1-3.44Zm3.28-2.27-.81-2.84c-.23-.8-.46-1.79-.65-2.59h-.04c-.2.8-.38,1.81-.59,2.59l-.76,2.84Z" fill="#009dcc"/>
    <g id="Grupo_257" data-name="Grupo 257">
      <path id="Trazado_103" data-name="Trazado 103" d="M8.99,78.54h3.83v.51H9.57v3.46h3v.51h-3v4.17H8.99Z" fill="#dd598c"/>
      <path id="Trazado_104" data-name="Trazado 104" d="M14.72,78.54v5.43c0,2.06.9,2.84,2,2.84,1.25,0,2.1-.86,2.1-2.84V78.54h.58v5.37c0,2.54-1.26,3.42-2.7,3.42-1.34,0-2.55-.8-2.55-3.29v-5.5Z" fill="#dd598c"/>
      <path id="Trazado_105" data-name="Trazado 105" d="M21.16,87.19V78.53h.57l2.84,4.92a32.139,32.139,0,0,1,1.48,2.9l.03-.01c-.09-1.31-.1-2.26-.1-3.65V78.53h.57v8.66h-.56l-2.83-4.93a27.359,27.359,0,0,1-1.48-2.9l-.04.01c.07,1.14.09,2.08.09,3.66v4.16Z" fill="#dd598c"/>
      <path id="Trazado_106" data-name="Trazado 106" d="M28.33,78.65a8.834,8.834,0,0,1,1.84-.18,3.938,3.938,0,0,1,2.93,1,4.246,4.246,0,0,1,1.1,3.16,4.943,4.943,0,0,1-1.06,3.39,4.107,4.107,0,0,1-3.22,1.23,11.673,11.673,0,0,1-1.59-.08V78.65Zm.58,8.04a7.051,7.051,0,0,0,1.08.05c2.29,0,3.6-1.33,3.6-4.07.02-2.26-1.06-3.7-3.45-3.7a5.686,5.686,0,0,0-1.24.12v7.6Z" fill="#dd598c"/>
      <path id="Trazado_107" data-name="Trazado 107" d="M36.24,84.18l-.93,3.02h-.59l2.76-8.66h.56l2.75,8.66H40.2l-.96-3.02Zm2.83-.5-.88-2.76c-.19-.62-.31-1.11-.43-1.66h-.04a13.6,13.6,0,0,1-.42,1.64l-.88,2.78h2.65Z" fill="#dd598c"/>
      <path id="Trazado_108" data-name="Trazado 108" d="M46.85,86.93a4.338,4.338,0,0,1-1.97.39c-1.83,0-3.6-1.26-3.6-4.38,0-2.85,1.62-4.51,3.84-4.51a3.575,3.575,0,0,1,1.68.32l-.19.51a3.378,3.378,0,0,0-1.5-.32c-1.88,0-3.22,1.35-3.22,3.97,0,2.56,1.25,3.88,3.16,3.88a3.486,3.486,0,0,0,1.63-.35Z" fill="#dd598c"/>
      <rect id="Rect치ngulo_1175" data-name="Rect치ngulo 1175" width="0.58" height="8.66" transform="translate(48.05 78.54)" fill="#dd598c"/>
      <path id="Trazado_109" data-name="Trazado 109" d="M56.53,82.8c0,3.11-1.6,4.52-3.36,4.52-1.79,0-3.24-1.53-3.24-4.4,0-2.95,1.5-4.52,3.37-4.52C55.13,78.41,56.53,79.96,56.53,82.8Zm-5.99.12c0,1.86.88,3.89,2.69,3.89s2.7-1.98,2.7-3.98c0-1.78-.78-3.91-2.69-3.91S50.54,80.99,50.54,82.92Zm4.29-6.3L53.2,78.04h-.52l1.25-1.42Z" fill="#dd598c"/>
      <path id="Trazado_110" data-name="Trazado 110" d="M57.81,87.19V78.53h.57l2.84,4.92a32.139,32.139,0,0,1,1.48,2.9l.02-.01c-.08-1.31-.1-2.26-.1-3.65V78.53h.57v8.66h-.56L59.8,82.26a27.358,27.358,0,0,1-1.48-2.9l-.04.01c.08,1.14.09,2.08.09,3.66v4.16Z" fill="#dd598c"/>
    </g>
  </g>
</svg>
