<svg xmlns="http://www.w3.org/2000/svg" width="50" height="50" viewBox="0 0 50 50">
  <g id="noun_Bone_1358150" transform="translate(-5 -5)">
    <g id="Grupo_277" data-name="Grupo 277" transform="translate(5 5)">
      <path id="Trazado_182" data-name="Trazado 182" d="M19.611,55A7.9,7.9,0,0,1,14,52.667a7.733,7.733,0,0,1-2.222-4.444A7.733,7.733,0,0,1,7.333,46,7.9,7.9,0,0,1,17.389,33.889l16.5-16.5a7.928,7.928,0,0,1,.944-10.056A7.776,7.776,0,0,1,40.389,5,7.9,7.9,0,0,1,46,7.333a7.733,7.733,0,0,1,2.222,4.444A7.733,7.733,0,0,1,52.667,14a7.847,7.847,0,0,1,0,11.167,7.928,7.928,0,0,1-10.056.944l-16.5,16.5a7.928,7.928,0,0,1-.944,10.056A7.776,7.776,0,0,1,19.611,55Zm-6.444-9.667a1.518,1.518,0,0,1,1.056.444,1.551,1.551,0,0,1,.444,1.111,4.935,4.935,0,0,0,1.444,3.722,5.1,5.1,0,0,0,7.056,0,4.963,4.963,0,0,0,0-7,1.476,1.476,0,0,1,0-2.111L41.556,23.111a1.462,1.462,0,0,1,1.611-.333,1.576,1.576,0,0,1,.5.333,5.032,5.032,0,0,0,7,0,4.949,4.949,0,0,0-3.722-8.444,1.427,1.427,0,0,1-1.111-.444,1.551,1.551,0,0,1-.444-1.111,4.935,4.935,0,0,0-1.444-3.722,5.1,5.1,0,0,0-7.056,0,4.929,4.929,0,0,0,0,7,1.476,1.476,0,0,1,0,2.111L18.5,36.889a1.462,1.462,0,0,1-1.611.333,1.576,1.576,0,0,1-.5-.333,5.142,5.142,0,0,0-7,0,4.949,4.949,0,0,0,3.722,8.444Z" transform="translate(-5 -5)" fill="#fff"/>
    </g>
  </g>
</svg>
