<svg xmlns="http://www.w3.org/2000/svg" width="42.4" height="43.183" viewBox="0 0 42.4 43.183">
  <g id="noun_House_94129" transform="translate(-4.865 -2.4)">
    <g id="Grupo_276" data-name="Grupo 276" transform="translate(5.415 2.9)">
      <g id="Grupo_275" data-name="Grupo 275">
        <g id="Grupo_274" data-name="Grupo 274">
          <g id="Grupo_273" data-name="Grupo 273">
            <path id="Trazado_180" data-name="Trazado 180" d="M28.457,13.339a.933.933,0,0,1,.509-.139,1.055,1.055,0,0,1,.509.139C30.54,14.126,41.561,22,45.96,25.147c.463.324.972.6.972,1.25V49.642a.978.978,0,0,1-.972.972H34.152a.942.942,0,0,1-.695-.278.813.813,0,0,1-.278-.695V35.334c0-.093-.232-.046-.278-.046H25.077c-.046,0-.509-.046-.509.046a1.552,1.552,0,0,0,0,.463V49.642a.978.978,0,0,1-.972.972H11.972A.978.978,0,0,1,11,49.642V26.536a1.212,1.212,0,0,1,.463-1.065c.093-.046.185-.139.278-.185C13.547,24.035,24.66,16.071,28.457,13.339ZM44.987,48.716v-21.9c-1.713-1.2-12.41-8.844-16.021-11.437-1.713,1.2-12.41,8.844-16.068,11.437v21.9h9.678V35.38a1.966,1.966,0,0,1,1.945-1.991h8.52a1.951,1.951,0,0,1,1.991,1.574,5.033,5.033,0,0,1,.046.833V48.716Z" transform="translate(-8.414 -8.431)" fill="#fff" stroke="#fff" stroke-width="1"/>
            <path id="Trazado_181" data-name="Trazado 181" d="M26.06,5.076c-2.825,1.991-15.6,11.159-19.17,13.706a.986.986,0,0,1-1.343-.324,1.031,1.031,0,0,1,.324-1.343C8.881,14.985,21.985,5.632,25.55,3.039a1,1,0,0,1,1.019,0c2.963,2.13,16.068,11.484,19.679,14.077a.976.976,0,0,1,.324,1.343.966.966,0,0,1-1.343.324C42.266,16.652,29.486,7.53,26.06,5.076Z" transform="translate(-5.415 -2.9)" fill="#fff" stroke="#fff" stroke-width="1"/>
          </g>
        </g>
      </g>
    </g>
  </g>
</svg>
