<svg xmlns="http://www.w3.org/2000/svg" width="45.717" height="40" viewBox="0 0 45.717 40">
  <g id="noun_Health_1917978" transform="translate(-2.483 -8.377)">
    <path id="Trazado_179" data-name="Trazado 179" d="M25.321,48.377a5.312,5.312,0,0,1-3.8-1.586L10.47,35.785A2.073,2.073,0,1,1,13.4,32.853L24.456,43.859a1.218,1.218,0,0,0,1.73,0l14.9-14.9.1-.1a9.4,9.4,0,0,0,2.788-6.777,9.688,9.688,0,0,0-2.788-6.777,9.515,9.515,0,0,0-13.506,0l-.1.1-.817.817a1.918,1.918,0,0,1-1.442.625h0a2.293,2.293,0,0,1-1.49-.625l-.913-.913A9.542,9.542,0,0,0,7.345,25.691h7.642l3.172-5.479a2.145,2.145,0,0,1,1.778-1.057h0a1.987,1.987,0,0,1,1.778,1.057l5.672,9.9,1.923-3.364a2.145,2.145,0,0,1,1.778-1.057h3.893a2.067,2.067,0,1,1,0,4.133H32.291L29.166,35.3a2.145,2.145,0,0,1-1.778,1.057h0A1.987,1.987,0,0,1,25.61,35.3l-5.672-9.853-1.923,3.364a2.145,2.145,0,0,1-1.778,1.057H6.048a2.061,2.061,0,0,1-1.826-1.057,13.73,13.73,0,0,1,21.1-16.967,13.766,13.766,0,0,1,18.841.529,13.693,13.693,0,0,1,.1,19.322l-.1.1-15.044,15A5.312,5.312,0,0,1,25.321,48.377Z" transform="translate(0)" fill="#fff"/>
  </g>
</svg>
