<svg xmlns="http://www.w3.org/2000/svg" width="65.595" height="65" viewBox="0 0 65.595 65">
  <g id="noun_Paw_Print_41317" data-name="noun_Paw Print_41317" transform="translate(-0.466 -0.296)">
    <g id="Grupo_246" data-name="Grupo 246" transform="translate(0.466 0.296)">
      <g id="Grupo_238" data-name="Grupo 238" transform="translate(29.664 24.384)">
        <path id="Trazado_70" data-name="Trazado 70" d="M45.641,39.583c0,.02,0,.041-.008.06l-.056.427a5.154,5.154,0,0,0,.1,1.753,4.8,4.8,0,0,0,.617,1.531,3.429,3.429,0,0,0,.875.967,1.894,1.894,0,0,0,1,.4,1.465,1.465,0,0,0,.875-.219,2.112,2.112,0,0,0,.621-.592,3.673,3.673,0,0,0,.588-1.337,4.638,4.638,0,0,0,.122-.838,5.244,5.244,0,0,0-.381-2.288,3.985,3.985,0,0,0-.946-1.433,2.307,2.307,0,0,0-1.005-.6,1.394,1.394,0,0,0-.738-.008,1.68,1.68,0,0,0-.814.5,3.156,3.156,0,0,0-.7,1.183c-.019.057-.047.125-.078.2Z" transform="translate(-45.541 -37.364)" fill="#fff"/>
      </g>
      <g id="Grupo_239" data-name="Grupo 239">
        <path id="Trazado_71" data-name="Trazado 71" d="M16.013,10.448a16.908,16.908,0,0,1,2.887-.259c4.465,0,8.337,1.982,11.509,5.892.322.4.635.8.973,1.243l1.136,1.463.713-3.171a14.537,14.537,0,0,1,8.363-10.6A14.676,14.676,0,0,1,61.5,13.11,19.96,19.96,0,0,1,60.94,27.99c-.1.231-.2.454-.3.682a7.037,7.037,0,0,1,.775-.126,6.063,6.063,0,0,1,2.14.159,5.709,5.709,0,0,1,.655.22A23.734,23.734,0,0,0,65.92,17.273c-.067-.6-.151-1.194-.233-1.79l-.124-.892-.079-.33c-.147-.389-.285-.782-.425-1.175a25.458,25.458,0,0,0-1.029-2.609A18.059,18.059,0,0,0,47.838.3a17.327,17.327,0,0,0-2.4.167c-6.621.929-11.454,4.563-14.361,10.8-.049.1-.1.211-.142.317l-.535-.412A26.478,26.478,0,0,0,28.2,9.587,18.127,18.127,0,0,0,.523,26.452c.038.5.1,1,.153,1.5l.084.735.136.592c.029.081.06.161.092.24a3.6,3.6,0,0,1,.145.414,24.478,24.478,0,0,0,3.888,8.284,30.128,30.128,0,0,0,9.191,8.192c2.907,1.743,5.91,3.429,8.815,5.059,1.636.917,3.271,1.834,4.9,2.767a72.644,72.644,0,0,1,12.591,8.836c.441.394.878.793,1.33,1.2L42.972,65.3l.376-.951c.074-.182.14-.344.2-.508a62.194,62.194,0,0,1,4.21-9,15.291,15.291,0,0,1-2.2-1.037l-.774-.434c-.028-.014-.055-.03-.082-.045a63.86,63.86,0,0,0-2.961,5.929c-.036.085-.076.17-.115.258l-.791-.621c-.861-.68-1.7-1.342-2.553-1.987a103.648,103.648,0,0,0-12.069-7.584l-1.735-.967c-2.848-1.583-5.794-3.22-8.62-4.939a26.2,26.2,0,0,1-8.873-8.3A22.18,22.18,0,0,1,4.4,28.952a14.088,14.088,0,0,1,.531-9.545A14.164,14.164,0,0,1,16.013,10.448Z" transform="translate(-0.466 -0.296)" fill="#fff"/>
      </g>
      <g id="Grupo_245" data-name="Grupo 245" transform="translate(27.454 15.293)">
        <g id="Grupo_240" data-name="Grupo 240" transform="translate(1.446 14.777)">
          <path id="Trazado_72" data-name="Trazado 72" d="M64.008,69.01c-.048-.021-.1-.045-.145-.062a12.967,12.967,0,0,1-2.078-.972c-.651-.363-1.3-.731-1.948-1.09a14.235,14.235,0,0,0-1.5-.714,9.936,9.936,0,0,0-1.865-.568,9.713,9.713,0,0,0-1.416-.158c-.818-.041-1.638-.015-2.457,0-.668.014-1.337.021-2.007-.021a9.961,9.961,0,0,1-1.367-.172A5.78,5.78,0,0,1,47.64,64.7a4.93,4.93,0,0,1-1.805-1.671,5.7,5.7,0,0,1-.971-3.409,6.322,6.322,0,0,1,.286-1.66,7.974,7.974,0,0,1,1.566-2.8,10.411,10.411,0,0,1,2.459-2.1c.356-.223.725-.421,1.1-.612a14.726,14.726,0,0,0,2.2-1.411c.746-.567,1.454-1.179,2.164-1.79.6-.52,1.208-1.04,1.847-1.522a10.981,10.981,0,0,1,1.626-1.039,5.632,5.632,0,0,1,1.953-.61,4.719,4.719,0,0,1,1.593.1,7.383,7.383,0,0,1,2.227.894,5.708,5.708,0,0,1,1.822,1.823,9.557,9.557,0,0,1,.913,1.9c.253.7.489,1.406.728,2.111.255.743.52,1.482.84,2.2a14.488,14.488,0,0,0,1.3,2.322,11.823,11.823,0,0,1,1.543,3.067,8.805,8.805,0,0,1,.459,2.755,6.694,6.694,0,0,1-.265,1.927,5.457,5.457,0,0,1-2.375,3.181,5.856,5.856,0,0,1-3.119.923,6.054,6.054,0,0,1-.877-.072.566.566,0,0,0-.082,0Z" transform="translate(-44.86 -46.049)" fill="#fff" fill-rule="evenodd"/>
        </g>
        <g id="Grupo_241" data-name="Grupo 241" transform="translate(21.504 3.243)">
          <path id="Trazado_73" data-name="Trazado 73" d="M82.7,28.875l.213.088a3.619,3.619,0,0,1,1.692,1.4,5,5,0,0,1,.756,2.17,6.73,6.73,0,0,1-.035,1.842,8.529,8.529,0,0,1-1.91,4.2,7.173,7.173,0,0,1-1.92,1.647,5.281,5.281,0,0,1-2.116.725,3.77,3.77,0,0,1-1.54-.136,3.686,3.686,0,0,1-2.285-2.022,5.416,5.416,0,0,1-.508-2.14,6.658,6.658,0,0,1,.088-1.449A8.486,8.486,0,0,1,77.679,30.4,6.365,6.365,0,0,1,79.9,28.994a4.511,4.511,0,0,1,1.839-.291c.125.007.249.027.374.042.025,0,.049,0,.072,0Z" transform="translate(-75.035 -28.696)" fill="#fff" fill-rule="evenodd"/>
        </g>
        <g id="Grupo_242" data-name="Grupo 242" transform="translate(0 7.107)">
          <path id="Trazado_74" data-name="Trazado 74" d="M42.961,37.686a1.822,1.822,0,0,0,.083-.183,5.044,5.044,0,0,1,1.125-1.875,3.572,3.572,0,0,1,1.706-1.014,3.3,3.3,0,0,1,1.7.011,4.166,4.166,0,0,1,1.831,1.06,5.915,5.915,0,0,1,1.4,2.092,7.224,7.224,0,0,1,.516,3.095,6.726,6.726,0,0,1-.169,1.178,5.539,5.539,0,0,1-.9,2.016,4,4,0,0,1-1.176,1.1,3.319,3.319,0,0,1-1.991.489A3.775,3.775,0,0,1,45.09,44.9a5.324,5.324,0,0,1-1.366-1.493,6.688,6.688,0,0,1-.863-2.13,7.078,7.078,0,0,1-.129-2.386c.019-.162.043-.323.065-.484a.177.177,0,0,0-.007-.045Q42.877,38.024,42.961,37.686Z" transform="translate(-42.684 -34.508)" fill="#fff" fill-rule="evenodd"/>
        </g>
        <g id="Grupo_243" data-name="Grupo 243" transform="translate(9.843)">
          <path id="Trazado_75" data-name="Trazado 75" d="M57.748,28.264a7.272,7.272,0,0,1,1.083-2.4,5.262,5.262,0,0,1,1.436-1.413,3.713,3.713,0,0,1,2.041-.634,3.581,3.581,0,0,1,2.13.7,4.864,4.864,0,0,1,1.3,1.423,7.092,7.092,0,0,1,1,3.126,8.306,8.306,0,0,1-.045,1.927c-.037.253-.091.5-.145.755a6.775,6.775,0,0,1-.435,1.335,6.043,6.043,0,0,1-1.794,2.4,3.93,3.93,0,0,1-1.831.82,3.443,3.443,0,0,1-1.71-.159,4.156,4.156,0,0,1-1.8-1.291,5.965,5.965,0,0,1-1.03-1.811A7.906,7.906,0,0,1,57.5,30,8.617,8.617,0,0,1,57.748,28.264Z" transform="translate(-57.492 -23.817)" fill="#fff" fill-rule="evenodd"/>
        </g>
        <g id="Grupo_244" data-name="Grupo 244" transform="translate(27.837 14.744)">
          <path id="Trazado_76" data-name="Trazado 76" d="M84.745,51.057a6.764,6.764,0,0,1,1.2-2.418,7.153,7.153,0,0,1,1.826-1.684,5.825,5.825,0,0,1,2.588-.933,4.206,4.206,0,0,1,1.489.107A3.408,3.408,0,0,1,93.976,47.7a3.936,3.936,0,0,1,.538,1.714,4.8,4.8,0,0,1-.055,1.28c-.055.292-.134.581-.214.867a5.133,5.133,0,0,1-.409,1,7.233,7.233,0,0,1-2.443,2.721,5.882,5.882,0,0,1-2.453.957,4.387,4.387,0,0,1-1.5-.036,3.487,3.487,0,0,1-1.89-1.045,3.615,3.615,0,0,1-.867-1.662,4.744,4.744,0,0,1-.084-1.621A6.225,6.225,0,0,1,84.745,51.057Z" transform="translate(-84.563 -45.999)" fill="#fff" fill-rule="evenodd"/>
        </g>
      </g>
    </g>
  </g>
</svg>
