<svg xmlns="http://www.w3.org/2000/svg" width="67.508" height="65" viewBox="0 0 67.508 65">
  <g id="noun_food_bowl_2346444" data-name="noun_food bowl_2346444" transform="translate(-1.97 -3.98)">
    <path id="Trazado_69" data-name="Trazado 69" d="M58.632,23.391a3.906,3.906,0,1,0-3.906-3.906A3.913,3.913,0,0,0,58.632,23.391Zm0-4.972a1.065,1.065,0,1,1-1.065,1.065A1.064,1.064,0,0,1,58.632,18.419ZM13.817,3.98a1.776,1.776,0,1,1-1.776,1.776A1.776,1.776,0,0,1,13.817,3.98Zm36.52,16.214a1.776,1.776,0,1,1-1.776,1.776A1.776,1.776,0,0,1,50.336,20.194ZM65.9,31.4a1.776,1.776,0,1,1-1.776,1.776A1.776,1.776,0,0,1,65.9,31.4ZM62.886,5.756a1.776,1.776,0,1,1-1.776,1.776A1.776,1.776,0,0,1,62.886,5.756ZM5.521,35.308v2.131a1.42,1.42,0,0,0,2.841,0V35.308h2.131a1.42,1.42,0,0,0,0-2.841H8.362V30.337a1.42,1.42,0,0,0-2.841,0v2.131H3.39a1.42,1.42,0,0,0,0,2.841ZM37.531,12.5h2.131v2.131a1.42,1.42,0,0,0,2.841,0V12.5h2.131a1.42,1.42,0,1,0,0-2.841H42.5V7.531a1.42,1.42,0,0,0-2.841,0V9.662H37.531a1.42,1.42,0,1,0,0,2.841ZM69.264,63.817,62.723,44.832A3.893,3.893,0,0,0,59.044,42.2h-.128c0-.071.014-.142.014-.213a7.985,7.985,0,0,0-8.409-7.947,8,8,0,0,0-6.974-4.134,7.915,7.915,0,0,0-3.693.909,7.946,7.946,0,0,0-11.513-2.805L26.75,22a6.542,6.542,0,0,0,3.317-7.472,6.553,6.553,0,0,0-12.308-.952,6.534,6.534,0,1,0-7.187,10.888,6.571,6.571,0,0,0,3.544.888l2.649,10.121a7.936,7.936,0,0,0-3.43,6.541c0,.071.014.142.014.213h-.227a3.893,3.893,0,0,0-3.679,2.628L2.9,63.817A3.895,3.895,0,0,0,6.579,68.98H65.585a3.895,3.895,0,0,0,3.679-5.163ZM48.341,36.089a1.424,1.424,0,0,0,1.612.895,4.877,4.877,0,0,1,1.016-.1,5.127,5.127,0,0,1,5.121,5.121c0,.071-.007.142-.014.213H26.082c0-.071-.014-.142-.014-.213a5.122,5.122,0,0,1,9.83-2.017,1.42,1.42,0,0,0,2.685-.895,5.114,5.114,0,0,1,9.759-3Zm-15.5-6.626a5.1,5.1,0,0,1,4.73,3.182A7.968,7.968,0,0,0,35.919,35.6a7.944,7.944,0,0,0-4.737-1.563,7.66,7.66,0,0,0-1.222.107l-.824-3.1A5.1,5.1,0,0,1,32.836,29.463ZM15.883,22.531a1.437,1.437,0,0,0-1.08-.149A3.7,3.7,0,0,1,12,22.006a3.651,3.651,0,0,1-1.712-2.251,3.7,3.7,0,0,1,.376-2.805,3.651,3.651,0,0,1,2.251-1.712,3.707,3.707,0,0,1,4.517,2.628,1.419,1.419,0,0,0,2.791-.362,1.273,1.273,0,0,0-.05-.362,3.7,3.7,0,0,1,.376-2.805A3.651,3.651,0,0,1,22.8,12.623,3.7,3.7,0,0,1,25.606,13a3.651,3.651,0,0,1,1.712,2.251,3.7,3.7,0,0,1-.376,2.805,3.651,3.651,0,0,1-2.251,1.712A1.412,1.412,0,0,0,23.682,21.5l3.587,13.565a7.959,7.959,0,0,0-4.048,6.925c0,.071.014.142.014.213H21.466L16.537,23.391A1.389,1.389,0,0,0,15.883,22.531Zm.291,19.474a5.125,5.125,0,0,1,1.392-3.494l.973,3.7H16.2A1.014,1.014,0,0,1,16.175,42.006ZM66.444,65.7a1.029,1.029,0,0,1-.859.44H6.579a1.067,1.067,0,0,1-.859-.44,1.033,1.033,0,0,1-.135-.952l.256-.739H15.5a1.42,1.42,0,1,0,0-2.841H6.814L10.663,50H26.856a1.42,1.42,0,0,0,0-2.841H11.643l.483-1.392a1.054,1.054,0,0,1,.994-.71H59.044a1.048,1.048,0,0,1,.994.71l.483,1.392h-1.74a1.42,1.42,0,0,0,0,2.841H61.5l3.849,11.172H60.919a1.42,1.42,0,1,0,0,2.841h5.412l.256.739A1.056,1.056,0,0,1,66.444,65.7ZM31.807,50h2.514a1.42,1.42,0,1,0,0-2.841H31.807a1.42,1.42,0,1,0,0,2.841ZM56.65,61.168H53.6a1.42,1.42,0,0,0,0,2.841H56.65a1.42,1.42,0,1,0,0-2.841Zm-11.3-5.874a2.436,2.436,0,1,0-4.872,0H31.693a2.436,2.436,0,1,0-3.885,1.953A2.434,2.434,0,1,0,31.693,59.2h8.778a2.436,2.436,0,1,0,3.885-1.953A2.421,2.421,0,0,0,45.351,55.294Z" transform="translate(0)" fill="#fff"/>
  </g>
</svg>
