<svg xmlns="http://www.w3.org/2000/svg" width="49.788" height="39.119" viewBox="0 0 49.788 39.119">
  <g id="noun_Mail_2410393" transform="translate(-2 -6)">
    <g id="_01" data-name="01" transform="translate(2 6)">
      <path id="Trazado_183" data-name="Trazado 183" d="M46.454,45.119H7.334A5.334,5.334,0,0,1,2,39.785V11.334A5.334,5.334,0,0,1,7.334,6H46.454a5.334,5.334,0,0,1,5.334,5.334V39.785a5.334,5.334,0,0,1-5.334,5.334ZM7.334,9.556a1.778,1.778,0,0,0-1.778,1.778V39.785a1.778,1.778,0,0,0,1.778,1.778H46.454a1.778,1.778,0,0,0,1.778-1.778V11.334a1.778,1.778,0,0,0-1.778-1.778Z" transform="translate(-2 -6)" fill="#fff"/>
      <path id="Trazado_184" data-name="Trazado 184" d="M26.524,27.976,2.476,13.178l1.864-3.03L26.524,23.8,48.708,10.148l1.864,3.03Z" transform="translate(-1.63 -2.772)" fill="#fff"/>
      <rect id="Rect치ngulo_1186" data-name="Rect치ngulo 1186" width="21.413" height="3.556" transform="translate(0.596 32.457) rotate(-41.636)" fill="#fff"/>
      <rect id="Rect치ngulo_1187" data-name="Rect치ngulo 1187" width="3.556" height="21.413" transform="matrix(0.664, -0.747, 0.747, 0.664, 30.824, 20.889)" fill="#fff"/>
    </g>
  </g>
</svg>
