<svg xmlns="http://www.w3.org/2000/svg" width="46.494" height="49.322" viewBox="0 0 46.494 49.322">
  <g id="noun_Doctor_1396024" transform="translate(-14.9 -12.7)">
    <g id="Group" transform="translate(14.9 12.7)">
      <path id="Compound_Path" data-name="Compound Path" d="M53.842,30.815a7.471,7.471,0,0,0-1.917,14.678v2.248a10.314,10.314,0,0,1-20.628,0V37.956A14.413,14.413,0,0,0,43.66,23.675V14.683A1.983,1.983,0,0,0,41.677,12.7H35.263v3.967h4.43v7.008a10.446,10.446,0,0,1-20.826,0V16.667H23.3V12.7H16.883A1.983,1.983,0,0,0,14.9,14.683v8.992A14.413,14.413,0,0,0,27.33,37.956v9.785a14.281,14.281,0,1,0,28.562,0V45.493a7.471,7.471,0,0,0-2.05-14.678Zm0,10.975a3.5,3.5,0,1,1,3.5-3.5A3.5,3.5,0,0,1,53.842,41.791Z" transform="translate(-14.9 -12.7)" fill="#fff"/>
    </g>
  </g>
</svg>
