<svg xmlns="http://www.w3.org/2000/svg" width="37.21" height="24.83" viewBox="0 0 37.21 24.83">
  <g id="noun_food_bowl_2346444" data-name="noun_food bowl_2346444" transform="translate(87.25 31.81) rotate(180)">
    <path id="Trazado_69" data-name="Trazado 69" d="M81.75,31.31a5.5,5.5,0,1,0-5.5-5.5A5.51,5.51,0,0,0,81.75,31.31Zm0-7a1.5,1.5,0,1,1-1.5,1.5A1.5,1.5,0,0,1,81.75,24.31Zm-11.68,2.5a2.5,2.5,0,1,1-2.5,2.5A2.5,2.5,0,0,1,70.07,26.81ZM52.04,15.98h3c0,4.1.9,5,2,5a2.006,2.006,0,0,0,2-2v-3h3a2,2,0,1,0,0-4h-3v-3a2,2,0,0,0-4,0v3h-3a2,2,0,0,0,0,4Z" fill="#fff"/>
  </g>
</svg>
