<svg xmlns="http://www.w3.org/2000/svg" width="23.871" height="20.79" viewBox="0 0 23.871 20.79">
  <g id="paw" transform="translate(0 -0.499)">
    <path id="Trazado_1" data-name="Trazado 1" d="M239.062,122.06a1.978,1.978,0,0,0-1.3.575,1.414,1.414,0,1,0,2.189-.226A1.189,1.189,0,0,0,239.062,122.06Zm.465,1.34a1.336,1.336,0,0,1-.36.653c-.247.245-.8.543-1.107.23s-.007-.861.239-1.105.8-.544,1.107-.23A.493.493,0,0,1,239.527,123.4Zm0,0" transform="translate(-226.256 -115.978)" fill="#1aa3db"/>
    <path id="Trazado_2" data-name="Trazado 2" d="M173.477,111.375a1.414,1.414,0,1,0-2.189.226A1.576,1.576,0,0,0,173.477,111.375Zm-1.767-.765a1.338,1.338,0,0,1,.359-.653c.248-.247.8-.544,1.107-.23.236.237.126.744-.239,1.106-.248.246-.8.543-1.107.23A.492.492,0,0,1,171.71,110.61Zm0,0" transform="translate(-163.076 -103.362)" fill="#1aa3db"/>
    <path id="Trazado_3" data-name="Trazado 3" d="M290.017,172.752a1.753,1.753,0,1,0-.243,2.188A1.588,1.588,0,0,0,290.017,172.752Zm-.429.99a1.205,1.205,0,0,1-.353.654c-.247.245-.8.543-1.107.23-.235-.237-.126-.743.239-1.105S289.711,172.9,289.588,173.742Zm0,0" transform="translate(-274.023 -164.007)" fill="#1aa3db"/>
    <path id="Trazado_4" data-name="Trazado 4" d="M303.215,244.541a1.753,1.753,0,1,0,.243-2.188A1.588,1.588,0,0,0,303.215,244.541ZM304,242.9c.242-.24.794-.546,1.107-.23s.008.861-.239,1.105-.8.544-1.107.23C303.523,243.765,303.632,243.259,304,242.9Zm0,0" transform="translate(-288.934 -230.196)" fill="#1aa3db"/>
    <path id="Trazado_5" data-name="Trazado 5" d="M131.6,181.67c-.375,1.485.634,2.15,1.523,2.737a5.984,5.984,0,0,1,1.836,1.85c.642.99,1.436,1.859,2.726,1.544a2.672,2.672,0,0,0,1.968-1.883A1.963,1.963,0,0,0,139.3,184a1.3,1.3,0,0,1-.35-1.065,2.361,2.361,0,0,0-2.474-2.493,1.3,1.3,0,0,1-1.062-.358,1.729,1.729,0,0,0-1.246-.459A2.671,2.671,0,0,0,131.6,181.67Zm2.568-1.281a1,1,0,0,1,.7.233,2.047,2.047,0,0,0,1.585.584,1.6,1.6,0,0,1,1.729,1.742,2.046,2.046,0,0,0,.572,1.59,1.253,1.253,0,0,1,.159,1.172,1.916,1.916,0,0,1-1.414,1.348c-.957.234-1.44-.506-1.9-1.217a6.749,6.749,0,0,0-2.056-2.072c-.949-.626-1.434-1-1.2-1.911A1.905,1.905,0,0,1,134.167,180.39Zm0,0" transform="translate(-125.652 -171.221)" fill="#1aa3db"/>
    <path id="Trazado_6" data-name="Trazado 6" d="M20.529,14.264a.354.354,0,0,0,.491-.056,11.579,11.579,0,0,0,2.85-7.1A6.623,6.623,0,0,0,21.636,2.04,6.344,6.344,0,0,0,16.927.522a8.037,8.037,0,0,0-4.992,2.456A8.149,8.149,0,0,0,7.222.55,6.406,6.406,0,0,0,2.644,1.714,6.465,6.465,0,0,0,.1,5.907a9.468,9.468,0,0,0,1.272,6.1,18.4,18.4,0,0,0,3.449,4.342,34.31,34.31,0,0,0,6.544,4.784,1.137,1.137,0,0,0,1.138,0,32.3,32.3,0,0,0,7.587-5.845.35.35,0,1,0-.515-.473,31.613,31.613,0,0,1-7.423,5.713.431.431,0,0,1-.437,0l-.193-.112c2-1.935,5.976-5.815,6.113-5.953a2.345,2.345,0,0,0,.244-3.286,1.923,1.923,0,0,0-.71-.452,2.773,2.773,0,0,0,.326-.562,2.5,2.5,0,0,0,.208-1,2,2,0,0,0-.564-1.414,2.06,2.06,0,0,0-1.8-.549,2.305,2.305,0,0,0,.016-.624A1.973,1.973,0,0,0,13.4,4.833a2.608,2.608,0,0,0-1.561.522c-.53-1.492-2.374-1.571-3.489-.71-.086.066-2.629,2.6-3.965,3.957a.35.35,0,1,0,.5.492C6.117,7.846,7.344,6.588,8.6,5.357A1.734,1.734,0,0,1,10.734,5a1.294,1.294,0,0,1,.525,1.054.352.352,0,0,0,.618.221A1.719,1.719,0,0,1,14.314,5.9a1.5,1.5,0,0,1,.194,1.678.354.354,0,0,0,.461.464,1.484,1.484,0,0,1,1.677.207,1.554,1.554,0,0,1,.045,1.95,2.176,2.176,0,0,1-.436.484.353.353,0,0,0,.216.62,1.269,1.269,0,0,1,1.236.944,1.821,1.821,0,0,1-.438,1.591c-1.154,1.353-2.528,2.492-3.8,3.726-.841.841-1.708,1.657-2.562,2.484a32.833,32.833,0,0,1-5.6-4.2A18,18,0,0,1,2.114,11.9L3.9,10.09A.35.35,0,1,0,3.4,9.6L1.766,11.257A8.554,8.554,0,0,1,.791,6.023,5.769,5.769,0,0,1,3.056,2.279a5.708,5.708,0,0,1,4.08-1.035,7.586,7.586,0,0,1,4.544,2.474.35.35,0,0,0,.508,0,7.474,7.474,0,0,1,4.795-2.5,5.648,5.648,0,0,1,4.194,1.35c2.416,2.094,3.135,6.371-.706,11.2a.35.35,0,0,0,.056.491Zm0,0" transform="translate(0 0)" fill="#1aa3db"/>
  </g>
</svg>
