<svg xmlns="http://www.w3.org/2000/svg" width="20.821" height="20.79" viewBox="0 0 20.821 20.79">
  <g id="pet" transform="translate(0 -0.5)">
    <path id="Trazado_12" data-name="Trazado 12" d="M40.352,313.035a.41.41,0,1,0,.41.41A.41.41,0,0,0,40.352,313.035Zm0,0" transform="translate(-38.301 -299.831)" fill="#1aa3db"/>
    <path id="Trazado_13" data-name="Trazado 13" d="M187.571,87.679a2.465,2.465,0,0,0,2.033-.341,1.279,1.279,0,0,1,1.39.036,2.463,2.463,0,0,0,3.38-.711,2.508,2.508,0,0,0,.2-2.4,2.3,2.3,0,0,0-1.183-1.2,1.3,1.3,0,0,1-.734-.86,2.492,2.492,0,0,0-2.431-1.827,2.426,2.426,0,0,0-2.346,1.9,1.13,1.13,0,0,1-.637.765,2.474,2.474,0,0,0-1.4,2.9A2.44,2.44,0,0,0,187.571,87.679Zm0-3.883a1.939,1.939,0,0,0,1.108-1.332,1.618,1.618,0,0,1,1.563-1.265,1.663,1.663,0,0,1,1.622,1.219,2.105,2.105,0,0,0,1.189,1.4,1.477,1.477,0,0,1,.764.769,1.7,1.7,0,0,1-.122,1.625,1.642,1.642,0,0,1-2.253.475,2.081,2.081,0,0,0-2.3-.024,1.656,1.656,0,0,1-1.366.225,1.608,1.608,0,0,1-1.141-1.146,1.657,1.657,0,0,1,.931-1.943Zm0,0" transform="translate(-178.266 -76.649)" fill="#1aa3db"/>
    <path id="Trazado_14" data-name="Trazado 14" d="M18.663,276.157l-3.828,1.33a1.653,1.653,0,0,0,.027-.291,1.634,1.634,0,0,0-1.624-1.641h-2.63a.4.4,0,0,1-.2-.053l-2.145-1.219a2.822,2.822,0,0,0-1.394-.369H3.99a1.221,1.221,0,0,0-1.148-.821H.406A.408.408,0,0,0,0,273.5v7.384a.408.408,0,0,0,.406.41H2.842a1.221,1.221,0,0,0,1.137-.789,3.678,3.678,0,0,1,1.326.4l2.126,1.248a5.129,5.129,0,0,0,4.8.276l4.428-1.946a.412.412,0,0,0,.21-.54.4.4,0,0,0-.534-.213l-4.437,1.95a4.325,4.325,0,0,1-4.053-.233L5.72,280.2a4.455,4.455,0,0,0-1.66-.509v-4.957H6.869a2.016,2.016,0,0,1,1,.264l2.145,1.219a1.211,1.211,0,0,0,.6.158h2.629a.821.821,0,0,1,0,1.641H9.109a.41.41,0,0,0,0,.82h4.128a1.609,1.609,0,0,0,.761-.192l4.937-1.715a.767.767,0,0,1,.937.3c.31.579,0,.86-.556,1.192a.412.412,0,0,0-.21.54.4.4,0,0,0,.534.213c.992-.638,1.514-1.274.947-2.334a1.568,1.568,0,0,0-1.924-.684ZM3.248,280.069a.409.409,0,0,1-.406.408H.812v-6.564h2.03a.409.409,0,0,1,.406.41Zm0,0" transform="translate(0 -261.608)" fill="#1aa3db"/>
    <path id="Trazado_15" data-name="Trazado 15" d="M308.829,2.141a1.641,1.641,0,1,0-1.641,1.641A1.643,1.643,0,0,0,308.829,2.141Zm-2.461,0a.82.82,0,1,1,.821.82A.822.822,0,0,1,306.367,2.141Zm0,0" transform="translate(-293.146)" fill="#1aa3db"/>
    <path id="Trazado_16" data-name="Trazado 16" d="M207.337,3.782A1.641,1.641,0,1,0,205.7,2.141,1.643,1.643,0,0,0,207.337,3.782Zm0-2.461a.82.82,0,1,1-.821.821.821.821,0,0,1,.821-.821Zm0,0" transform="translate(-197.347)" fill="#1aa3db"/>
    <path id="Trazado_17" data-name="Trazado 17" d="M367.918,81.613a1.231,1.231,0,1,0-1.231,1.231A1.232,1.232,0,0,0,367.918,81.613Zm-1.231.41a.41.41,0,1,1,.41-.41A.411.411,0,0,1,366.688,82.024Zm0,0" transform="translate(-350.616 -76.639)" fill="#1aa3db"/>
    <path id="Trazado_18" data-name="Trazado 18" d="M165.754,81.613a1.231,1.231,0,1,0,1.231-1.231A1.232,1.232,0,0,0,165.754,81.613Zm1.641,0a.41.41,0,1,1-.41-.41A.411.411,0,0,1,167.395,81.613Zm0,0" transform="translate(-159.023 -76.639)" fill="#1aa3db"/>
    <path id="Trazado_19" data-name="Trazado 19" d="M433.176,418.289a.41.41,0,1,0-.41.41A.41.41,0,0,0,433.176,418.289Zm0,0" transform="translate(-414.807 -400.445)" fill="#1aa3db"/>
  </g>
</svg>
