<svg xmlns="http://www.w3.org/2000/svg" width="101.66" height="100.005" viewBox="0 0 101.66 100.005">
  <g id="Grupo_294_1_" transform="translate(0.006)">
    <g id="Grupo_280_1_" transform="translate(10.054 10.031)">
      <g id="Grupo_278_1_">
        <path id="Trazado_185_1_" d="M3.55,51.63,44.06,10.59,84.6,51.58l7-6.97L44.08-3.43-3.44,44.62Z" fill="#32bfce"/>
      </g>
      <g id="Grupo_279_1_" transform="translate(10.618 21.304)">
        <path id="Trazado_186_1_" d="M73.99,30.32V68.67H-7.07V30.32L33.44-10.72Z" fill="#ffcb31"/>
      </g>
    </g>
    <g id="Grupo_286_1_" transform="translate(47.975 72.49)">
      <g id="Grupo_281_1_" transform="translate(12.03 21.764)">
        <path id="Trazado_187_1_" d="M5.67-19.88h0a8.453,8.453,0,0,1-2.08-2.45,8.569,8.569,0,0,1-1.05-2.86v.01A8.548,8.548,0,0,0-7.37-32.1a8.553,8.553,0,0,0-6.92,6.92l-.01-.01a8.357,8.357,0,0,1-1.05,2.86,8.335,8.335,0,0,1-2.09,2.45h.01A8.539,8.539,0,0,0-18.6-7.86,8.544,8.544,0,0,0-8.88-5.33l-.01.01a9.2,9.2,0,0,1,6.17.06l-.01-.01A8.561,8.561,0,0,0,8.26-10.33a8.532,8.532,0,0,0-2.59-9.55Z" fill="#fff"/>
      </g>
      <g id="Grupo_282_1_" transform="translate(0 16.021)">
        <path id="Trazado_188_1_" d="M-6.62-25.38a4.906,4.906,0,0,1-4.89,4.9,4.906,4.906,0,0,1-4.9-4.89,4.906,4.906,0,0,1,4.89-4.9h.01A4.891,4.891,0,0,1-6.62-25.38Z" fill="#fff"/>
      </g>
      <g id="Grupo_283_1_" transform="translate(15.279)">
        <path id="Trazado_189_1_" d="M-11.85-19.9a4.891,4.891,0,0,1-4.89,4.89,4.891,4.891,0,0,1-4.89-4.89,4.891,4.891,0,0,1,4.89-4.89h0a4.891,4.891,0,0,1,4.89,4.89Z" fill="#fff"/>
      </g>
      <g id="Grupo_284_1_" transform="translate(53.726 16.021)">
        <path id="Trazado_190_1_" d="M-34.78-25.38a4.891,4.891,0,0,0,4.89,4.89A4.891,4.891,0,0,0-25-25.38a4.891,4.891,0,0,0-4.89-4.89h0a4.891,4.891,0,0,0-4.89,4.89Z" fill="#fff"/>
      </g>
      <g id="Grupo_285_1_" transform="translate(38.442)">
        <path id="Trazado_191_1_" d="M-29.56-19.9a4.891,4.891,0,0,0,4.89,4.89,4.891,4.891,0,0,0,4.89-4.89,4.891,4.891,0,0,0-4.89-4.89,4.9,4.9,0,0,0-4.89,4.89Z" fill="#fff"/>
      </g>
    </g>
    <g id="Grupo_292_1_" transform="translate(37.913 62.432)">
      <g id="Grupo_287_1_" transform="translate(12.034 21.764)">
        <path id="Trazado_192_1_" d="M5.82,2.99a10.543,10.543,0,0,1-3.68-.66,1.093,1.093,0,0,1-.17-.05A6.364,6.364,0,0,0-.28,1.91a6.2,6.2,0,0,0-2.37.41,1.4,1.4,0,0,1-.29.09,10.255,10.255,0,0,1-3.43.58A10.691,10.691,0,0,1-17.08-7.69a10.708,10.708,0,0,1,3.75-8.15c.05-.05.11-.1.17-.15a6.422,6.422,0,0,0,1.56-1.84,6.261,6.261,0,0,0,.78-2.14,1.742,1.742,0,0,1,.05-.22A10.7,10.7,0,0,1,1.81-28.6a10.687,10.687,0,0,1,8.4,8.38c.02.08.04.16.06.25a6.423,6.423,0,0,0,.78,2.13A6.234,6.234,0,0,0,12.6-16a1.537,1.537,0,0,1,.19.17,10.671,10.671,0,0,1,3.73,8.11,2.147,2.147,0,0,1-2.19,2.11,2.143,2.143,0,0,1-2.11-2.11,6.373,6.373,0,0,0-2.33-4.92c-.04-.03-.07-.06-.11-.09a11.044,11.044,0,0,1-3.72-6.29c-.02-.07-.03-.14-.05-.21A6.4,6.4,0,0,0-1.42-24.4a6.393,6.393,0,0,0-5.17,5.18.749.749,0,0,1-.04.16,11.044,11.044,0,0,1-3.75,6.34c-.03.03-.06.05-.09.08a6.384,6.384,0,0,0-.87,9A6.369,6.369,0,0,0-6.39-1.31a6.387,6.387,0,0,0,2.2-.4,1.587,1.587,0,0,0,.2-.07A10.85,10.85,0,0,1-.29-2.4a10.925,10.925,0,0,1,3.54.56,1.84,1.84,0,0,1,.25.09,6.419,6.419,0,0,0,6.82-1.4,2.149,2.149,0,0,1,3.04.07,2.165,2.165,0,0,1-.02,3A10.7,10.7,0,0,1,5.82,2.99Z"/>
      </g>
      <g id="Grupo_288_1_" transform="translate(0 16.019)">
        <path id="Trazado_193_1_" d="M-5.92-12.74a7.046,7.046,0,0,1-7.04-7.05,7.046,7.046,0,0,1,7.05-7.04,7.05,7.05,0,0,1,7.04,7.04A2.154,2.154,0,0,1-.98-17.6a2.154,2.154,0,0,1-2.19-2.11v-.08a2.74,2.74,0,0,0-2.75-2.74,2.74,2.74,0,0,0-2.74,2.75,2.738,2.738,0,0,0,2.74,2.74,2.154,2.154,0,0,1,2.19,2.11,2.16,2.16,0,0,1-2.11,2.19Z"/>
      </g>
      <g id="Grupo_289_1_" transform="translate(15.284)">
        <path id="Trazado_194_1_" d="M-11.15-7.27a7.046,7.046,0,0,1-7.04-7.05,7.046,7.046,0,0,1,7.05-7.04A7.038,7.038,0,0,1-4.1-14.32a2.147,2.147,0,0,1-2.11,2.19A2.147,2.147,0,0,1-8.4-14.24v-.08a2.753,2.753,0,0,0-2.74-2.75,2.753,2.753,0,0,0-2.75,2.74,2.753,2.753,0,0,0,2.74,2.75A2.154,2.154,0,0,1-8.96-9.47a2.154,2.154,0,0,1-2.11,2.19.078.078,0,0,1-.08.01Z"/>
      </g>
      <g id="Grupo_290_1_" transform="translate(38.445)">
        <path id="Trazado_195_1_" d="M-19.07-7.27a7.038,7.038,0,0,1-7.04-7.04,7.038,7.038,0,0,1,7.04-7.04,7.038,7.038,0,0,1,7.04,7.04,2.154,2.154,0,0,1-2.11,2.19,2.154,2.154,0,0,1-2.19-2.11v-.08a2.738,2.738,0,0,0-2.74-2.74,2.744,2.744,0,0,0-2.74,2.74,2.744,2.744,0,0,0,2.74,2.74h0a2.147,2.147,0,0,1,2.11,2.19,2.143,2.143,0,0,1-2.11,2.11Z"/>
      </g>
      <g id="Grupo_291_1_" transform="translate(53.728 16.019)">
        <path id="Trazado_196_1_" d="M-24.3-12.74a7.038,7.038,0,0,1-7.04-7.04,7.038,7.038,0,0,1,7.04-7.04,7.038,7.038,0,0,1,7.04,7.04,2.154,2.154,0,0,1-2.11,2.19,2.154,2.154,0,0,1-2.19-2.11v-.08a2.74,2.74,0,0,0-2.75-2.74,2.74,2.74,0,0,0-2.74,2.75,2.744,2.744,0,0,0,2.74,2.74,2.147,2.147,0,0,1,2.11,2.19,2.133,2.133,0,0,1-2.1,2.1Z"/>
      </g>
    </g>
    <g id="Grupo_293_1_" transform="translate(-0.005 0.005)">
      <path id="Trazado_197_1_" d="M90.19,97.68H9.13a2.147,2.147,0,0,1-2.15-2.15V65.27a2.15,2.15,0,0,1,4.3-.08V93.38H88.04V58.03L49.65,19.2l-39,39.45a2.126,2.126,0,0,1-1.52.64H9.12a2.158,2.158,0,0,1-1.52-.63L.63,51.69a2.146,2.146,0,0,1-.01-3.03L48.14.61a2.211,2.211,0,0,1,3.06,0L98.72,48.66a2.15,2.15,0,1,1-3.06,3.02L49.67,5.18,5.18,50.16l3.93,3.93L48.12,14.63a2.211,2.211,0,0,1,3.06,0L91.73,55.62a2.142,2.142,0,0,1,.62,1.51V95.52A2.164,2.164,0,0,1,90.19,97.68Z"/>
    </g>
  </g>
</svg>
