<svg id="vacunas" xmlns="http://www.w3.org/2000/svg" width="119.47" height="100" viewBox="0 0 119.47 100">
  <g id="Grupo_287" data-name="Grupo 287">
    <path id="Trazado_190" data-name="Trazado 190" d="M112.41,26.63a7.059,7.059,0,0,1,7.06,7.06V92.94a7.059,7.059,0,0,1-7.06,7.06H14.53a7.059,7.059,0,0,1-7.06-7.06V33.69a7.059,7.059,0,0,1,7.06-7.06Z" fill="#32bfce"/>
  </g>
  <g id="Grupo_288" data-name="Grupo 288">
    <path id="Trazado_191" data-name="Trazado 191" d="M57.15,57H46.8V69.63H57.15V79.98H69.78V69.63H80.13V57H69.78V46.65H57.15Z" fill="#fff"/>
  </g>
  <g id="Grupo_289" data-name="Grupo 289">
    <path id="Trazado_192" data-name="Trazado 192" d="M107.43,97.32H9.55A9.562,9.562,0,0,1,0,87.77V28.52a9.556,9.556,0,0,1,9.55-9.55H72.81V4.98H44.17v7.06a2.49,2.49,0,0,1-4.98,0V2.49A2.484,2.484,0,0,1,41.68,0H75.3a2.484,2.484,0,0,1,2.49,2.49V21.45a2.49,2.49,0,0,1-2.49,2.49H9.55a4.575,4.575,0,0,0-4.57,4.57V87.76a4.575,4.575,0,0,0,4.57,4.57h97.88A4.575,4.575,0,0,0,112,87.76V28.52a4.575,4.575,0,0,0-4.57-4.57H84.71a2.49,2.49,0,0,1,0-4.98h22.72a9.556,9.556,0,0,1,9.55,9.55V87.77A9.562,9.562,0,0,1,107.43,97.32Z"/>
  </g>
  <g id="Grupo_290" data-name="Grupo 290">
    <path id="Trazado_193" data-name="Trazado 193" d="M64.8,77.3H52.18a2.484,2.484,0,0,1-2.49-2.49V66.95H41.83a2.484,2.484,0,0,1-2.49-2.49V51.83a2.49,2.49,0,0,1,2.49-2.49H52.18a2.49,2.49,0,1,1,0,4.98H44.32v7.65h7.86a2.484,2.484,0,0,1,2.49,2.49v7.86h7.65V64.46a2.49,2.49,0,0,1,2.49-2.49h7.86V54.32H64.8a2.484,2.484,0,0,1-2.49-2.49V43.97H52.18a2.49,2.49,0,1,1,0-4.98H64.8a2.484,2.484,0,0,1,2.49,2.49v7.86h7.86a2.484,2.484,0,0,1,2.49,2.49V64.46a2.49,2.49,0,0,1-2.49,2.49H67.3v7.86A2.5,2.5,0,0,1,64.8,77.3Z"/>
  </g>
</svg>
